<?xml version="1.0" encoding="UTF-8"?>
<svg id="Layer_2" data-name="Layer 2" xmlns="http://www.w3.org/2000/svg" xmlns:xlink="http://www.w3.org/1999/xlink" viewBox="0 0 227.3 214.91">
  <defs>
    <style>
      .cls-1 {
        fill: none;
      }

      .cls-2 {
        fill: url(#linear-gradient-5);
      }

      .cls-3 {
        fill: url(#linear-gradient-6);
      }

      .cls-4 {
        fill: url(#linear-gradient-4);
      }

      .cls-5 {
        fill: url(#linear-gradient-3);
      }

      .cls-6 {
        fill: url(#linear-gradient-2);
      }

      .cls-7 {
        fill: url(#linear-gradient);
      }

      .cls-8 {
        clip-path: url(#clippath-1);
      }

      .cls-9 {
        clip-path: url(#clippath-3);
      }

      .cls-10 {
        clip-path: url(#clippath-4);
      }

      .cls-11 {
        clip-path: url(#clippath-2);
      }

      .cls-12 {
        clip-path: url(#clippath-5);
      }

      .cls-13 {
        clip-path: url(#clippath);
      }
    </style>
    <clipPath id="clippath">
      <polygon class="cls-1" points="33.25 99.61 63.12 126.26 63.12 86.22 33.27 59.57 33.25 99.61"/>
    </clipPath>
    <linearGradient id="linear-gradient" x1="-6555.89" y1="4189.96" x2="-6554.89" y2="4189.96" gradientTransform="translate(1234110.1 788845.01) scale(188.25 -188.25)" gradientUnits="userSpaceOnUse">
      <stop offset="0" stop-color="#867160"/>
      <stop offset=".42" stop-color="#ab9378"/>
      <stop offset=".78" stop-color="#c5aa89"/>
      <stop offset="1" stop-color="#cfb390"/>
    </linearGradient>
    <clipPath id="clippath-1">
      <polygon class="cls-1" points="55.32 58.46 74.37 75.45 74.39 49.92 55.34 32.93 55.32 58.46"/>
    </clipPath>
    <linearGradient id="linear-gradient-2" x1="-6555.89" y1="4189.96" x2="-6554.89" y2="4189.96" gradientTransform="translate(1234088.48 788805.88) scale(188.25 -188.25)" xlink:href="#linear-gradient"/>
    <clipPath id="clippath-2">
      <polygon class="cls-1" points="164.18 86.22 164.18 126.26 194.06 99.61 194.03 59.57 164.18 86.22"/>
    </clipPath>
    <linearGradient id="linear-gradient-3" x1="-6555.89" y1="4189.96" x2="-6554.89" y2="4189.96" gradientTransform="translate(1234144.96 788845) scale(188.25 -188.25)" xlink:href="#linear-gradient"/>
    <clipPath id="clippath-3">
      <polygon class="cls-1" points="152.91 49.92 152.93 75.45 171.98 58.46 171.96 32.93 152.91 49.92"/>
    </clipPath>
    <linearGradient id="linear-gradient-4" x1="-6555.89" y1="4189.96" x2="-6554.89" y2="4189.96" gradientTransform="translate(1234114.46 788805.88) scale(188.25 -188.25)" xlink:href="#linear-gradient"/>
    <clipPath id="clippath-4">
      <polygon class="cls-1" points="113.65 141.6 63.12 126.26 63.12 148.8 113.65 164.53 164.18 148.8 164.18 126.26 113.65 141.6"/>
    </clipPath>
    <linearGradient id="linear-gradient-5" x1="-6555.89" y1="4189.93" x2="-6554.89" y2="4189.93" gradientTransform="translate(1234163.06 788891.89) scale(188.25 -188.25)" xlink:href="#linear-gradient"/>
    <clipPath id="clippath-5">
      <path class="cls-1" d="M87.17,85.01s23.94,2.49,23.98,33.86h5.11c.04-31.37,23.86-33.86,23.87-33.86l-26.48-58.61-26.48,58.61Z"/>
    </clipPath>
    <linearGradient id="linear-gradient-6" x1="-6555.89" y1="4189.96" x2="-6554.89" y2="4189.96" gradientTransform="translate(1234113.81 788825.51) scale(188.25 -188.25)" xlink:href="#linear-gradient"/>
  </defs>
  <g id="Layer_1-2" data-name="Layer 1">
    <g class="cls-13">
      <rect class="cls-7" x="14.57" y="58.3" width="67.23" height="69.23" transform="translate(-50.3 57.47) rotate(-42.8)"/>
    </g>
    <g class="cls-8">
      <rect class="cls-6" x="43.42" y="32.11" width="42.88" height="44.16" transform="translate(-19.55 58.49) rotate(-42.8)"/>
    </g>
    <g class="cls-11">
      <rect class="cls-5" x="145.5" y="58.3" width="67.23" height="69.23" transform="translate(-15.44 146.43) rotate(-42.8)"/>
    </g>
    <g class="cls-9">
      <rect class="cls-4" x="141" y="32.11" width="42.88" height="44.16" transform="translate(6.43 124.79) rotate(-42.8)"/>
    </g>
    <g class="cls-10">
      <rect class="cls-2" x="63.57" y="97.02" width="100.15" height="96.74" transform="translate(-68.52 115.92) rotate(-42.8)"/>
    </g>
    <g class="cls-12">
      <rect class="cls-3" x="62.81" y="20.72" width="101.69" height="103.83" transform="translate(-19.09 96.55) rotate(-42.8)"/>
    </g>
  </g>
</svg>