<?xml version="1.0" encoding="UTF-8"?>
<svg id="Layer_2" data-name="Layer 2" xmlns="http://www.w3.org/2000/svg" xmlns:xlink="http://www.w3.org/1999/xlink" viewBox="0 0 870.66 214.91">
  <defs>
    <style>
      .cls-1 {
        fill: none;
      }

      .cls-2 {
        fill: url(#linear-gradient-8);
      }

      .cls-3 {
        fill: url(#linear-gradient-7);
      }

      .cls-4 {
        fill: url(#linear-gradient-5);
      }

      .cls-5 {
        fill: url(#linear-gradient-6);
      }

      .cls-6 {
        fill: url(#linear-gradient-9);
      }

      .cls-7 {
        fill: url(#linear-gradient-4);
      }

      .cls-8 {
        fill: url(#linear-gradient-3);
      }

      .cls-9 {
        fill: url(#linear-gradient-2);
      }

      .cls-10 {
        fill: url(#linear-gradient);
      }

      .cls-11 {
        clip-path: url(#clippath-17);
      }

      .cls-12 {
        clip-path: url(#clippath-19);
      }

      .cls-13 {
        clip-path: url(#clippath-11);
      }

      .cls-14 {
        clip-path: url(#clippath-16);
      }

      .cls-15 {
        clip-path: url(#clippath-18);
      }

      .cls-16 {
        clip-path: url(#clippath-10);
      }

      .cls-17 {
        clip-path: url(#clippath-15);
      }

      .cls-18 {
        clip-path: url(#clippath-13);
      }

      .cls-19 {
        clip-path: url(#clippath-14);
      }

      .cls-20 {
        clip-path: url(#clippath-12);
      }

      .cls-21 {
        clip-path: url(#clippath-27);
      }

      .cls-22 {
        clip-path: url(#clippath-29);
      }

      .cls-23 {
        clip-path: url(#clippath-26);
      }

      .cls-24 {
        clip-path: url(#clippath-28);
      }

      .cls-25 {
        clip-path: url(#clippath-20);
      }

      .cls-26 {
        clip-path: url(#clippath-21);
      }

      .cls-27 {
        clip-path: url(#clippath-22);
      }

      .cls-28 {
        clip-path: url(#clippath-23);
      }

      .cls-29 {
        clip-path: url(#clippath-24);
      }

      .cls-30 {
        clip-path: url(#clippath-25);
      }

      .cls-31 {
        clip-path: url(#clippath-1);
      }

      .cls-32 {
        clip-path: url(#clippath-3);
      }

      .cls-33 {
        clip-path: url(#clippath-4);
      }

      .cls-34 {
        clip-path: url(#clippath-2);
      }

      .cls-35 {
        clip-path: url(#clippath-7);
      }

      .cls-36 {
        clip-path: url(#clippath-6);
      }

      .cls-37 {
        clip-path: url(#clippath-9);
      }

      .cls-38 {
        clip-path: url(#clippath-8);
      }

      .cls-39 {
        clip-path: url(#clippath-5);
      }

      .cls-40 {
        fill: url(#linear-gradient-10);
      }

      .cls-41 {
        fill: url(#linear-gradient-11);
      }

      .cls-42 {
        fill: url(#linear-gradient-12);
      }

      .cls-43 {
        fill: url(#linear-gradient-13);
      }

      .cls-44 {
        fill: url(#linear-gradient-19);
      }

      .cls-45 {
        fill: url(#linear-gradient-14);
      }

      .cls-46 {
        fill: url(#linear-gradient-21);
      }

      .cls-47 {
        fill: url(#linear-gradient-20);
      }

      .cls-48 {
        fill: url(#linear-gradient-22);
      }

      .cls-49 {
        fill: url(#linear-gradient-23);
      }

      .cls-50 {
        fill: url(#linear-gradient-28);
      }

      .cls-51 {
        fill: url(#linear-gradient-25);
      }

      .cls-52 {
        fill: url(#linear-gradient-30);
      }

      .cls-53 {
        fill: url(#linear-gradient-15);
      }

      .cls-54 {
        fill: url(#linear-gradient-16);
      }

      .cls-55 {
        fill: url(#linear-gradient-17);
      }

      .cls-56 {
        fill: url(#linear-gradient-18);
      }

      .cls-57 {
        fill: url(#linear-gradient-27);
      }

      .cls-58 {
        fill: url(#linear-gradient-24);
      }

      .cls-59 {
        fill: url(#linear-gradient-26);
      }

      .cls-60 {
        fill: url(#linear-gradient-29);
      }

      .cls-61 {
        clip-path: url(#clippath);
      }
    </style>
    <clipPath id="clippath">
      <path class="cls-1" d="M255.42,70.56l-.3-.11v-25.98l.36-.07c2.79-.53,7.5-.84,12.6-.84,10.97,0,18.06,6.3,18.06,16.05,0,8.56-6.22,13.28-17.52,13.28-5.82,0-9.79-1.12-13.21-2.33M242.96,40.76c.64,1.53,1.95,5.82,1.88,15.26l-.36,33.33c-.07,9.38-1.31,13.64-1.9,15.15h14.76c-.67-1.53-2.06-5.81-2.13-15.15l-.1-13.98.5.06c3.86.45,8.43.92,13.09.92,19.84,0,28.88-9.68,28.88-18.66,0-11.22-8.21-16.91-24.41-16.91h-30.22Z"/>
    </clipPath>
    <linearGradient id="linear-gradient" x1="-6577.91" y1="4435.63" x2="-6576.91" y2="4435.63" gradientTransform="translate(3308402.9 2230918.49) scale(502.94 -502.94)" gradientUnits="userSpaceOnUse">
      <stop offset="0" stop-color="#867160"/>
      <stop offset=".42" stop-color="#ab9378"/>
      <stop offset=".78" stop-color="#c5aa89"/>
      <stop offset="1" stop-color="#cfb390"/>
    </linearGradient>
    <clipPath id="clippath-1">
      <path class="cls-1" d="M327.76,90.33c-4.58-5.67-7.1-13.27-7.1-21.39,0-15.03,8.12-24.36,21.19-24.36,15.85,0,27.8,13.53,27.8,31.47,0,14.35-8.44,23.99-21.01,23.99-8.54,0-15.77-3.36-20.89-9.71M309.49,74.76c0,17.53,14.72,30.75,34.24,30.75,20.81,0,37.11-15.33,37.11-34.91,0-17.93-14.11-30.94-33.53-30.94-21.2,0-37.82,15.42-37.82,35.09"/>
    </clipPath>
    <linearGradient id="linear-gradient-2" x1="-6577.91" y1="4435.65" x2="-6576.91" y2="4435.65" gradientTransform="translate(3308412.28 2230927.07) scale(502.94 -502.94)" xlink:href="#linear-gradient"/>
    <clipPath id="clippath-2">
      <path class="cls-1" d="M396,40.76c.53,1.5,1.65,5.78,1.65,15.25v33.33c0,9.41-1.12,13.67-1.66,15.16l47.63.36,3.95-15.16-.16-.12c-8.76,9.35-24.14,10.74-36.99,10.74-.45,0-.89,0-1.34,0h-.38l-.06-.38c-.41-2.72-.63-6.48-.63-10.59v-33.33c0-9.47,1.12-13.75,1.66-15.25h-13.68Z"/>
    </clipPath>
    <linearGradient id="linear-gradient-3" y1="4435.65" y2="4435.65" gradientTransform="translate(3308420.62 2230927.41) scale(502.94 -502.94)" xlink:href="#linear-gradient"/>
    <clipPath id="clippath-3">
      <path class="cls-1" d="M461,40.76c.53,1.5,1.66,5.78,1.66,15.25v33.33c0,9.4-1.12,13.66-1.66,15.16h13.51c-.53-1.5-1.66-5.76-1.66-15.16v-33.33c0-9.47,1.12-13.75,1.66-15.25h-13.51Z"/>
    </clipPath>
    <linearGradient id="linear-gradient-4" y1="4435.65" y2="4435.65" gradientTransform="translate(3308427.58 2230925.74) scale(502.94 -502.94)" xlink:href="#linear-gradient"/>
    <clipPath id="clippath-4">
      <path class="cls-1" d="M489.66,74.57c0,17.71,14.84,31.6,33.8,31.6,16.09,0,25.12-8.4,29.45-12.43.73-.68,1.33-1.24,1.84-1.65v-2.04c-.02-5.52-.03-11.23.84-14.65h-12.52c2.03,4.19,2.03,10.59,2.03,18.57v.21l-.16.13c-3.84,3.24-9.61,5.09-15.85,5.09-16.75,0-29.86-13.5-29.86-30.73,0-15.71,7.59-24.73,20.83-24.73,12.23,0,25.41,8.37,28.79,14.25l.12-.06,1.63-13.41c-2.99-1.69-11.22-6.17-23.75-6.17-24.42,0-37.19,18.12-37.19,36.02"/>
    </clipPath>
    <linearGradient id="linear-gradient-5" x1="-6577.91" y1="4435.65" x2="-6576.91" y2="4435.65" gradientTransform="translate(3308433.11 2230927.76) scale(502.94 -502.94)" xlink:href="#linear-gradient"/>
    <clipPath id="clippath-5">
      <path class="cls-1" d="M582.91,80.92l-.67-.03.28-.61,13.43-28.48.42.76c1.18,2.09,2.4,4.3,3.33,6.31l10.2,22.02-.67.03c-4.01.18-8.05.28-12,.28-5.07,0-9.89-.09-14.32-.28M593.47,47.52l.17.22-.12.25-20.11,40.62c-2.28,4.7-5.77,10.72-9.22,15.88h9.47c.28-4.59,2.3-10.03,2.99-11.15l3.66-8.33h.28c5.45-.21,10.33-.38,14.86-.38,5.44,0,10.77.17,16.2.37h.27s3.07,6.25,3.07,6.25c2.23,5.36,3.6,9.28,3.95,13.23h16.57c-3.96-5.39-6.78-10.7-10.03-16.81l-.38-.72-16.82-35.28-5.42-10.82-16.86-.09c2.96,1.97,5.59,4.34,7.48,6.75"/>
    </clipPath>
    <linearGradient id="linear-gradient-6" x1="-6577.91" y1="4435.66" x2="-6576.91" y2="4435.66" gradientTransform="translate(3308441.36 2230933.46) scale(502.94 -502.94)" xlink:href="#linear-gradient"/>
    <clipPath id="clippath-6">
      <path class="cls-1" d="M705.94,40.67c.31,2.43.28,4.07-.8,7.18l-14.34,41.35-12.31-29.25c-2.71-6.46-5.51-13.14-7.12-19.19h-14.31c1.19,1.21,2.19,2.37,3.05,3.75l.09.15-.04.17-9.24,45.78c-.71,3.46-1.88,9.16-3.92,13.89h7.57c-.34-3.29.06-8.96.69-12.46l8.06-43.03,23.08,55.4h3.32l19.47-56.44,1.23,5.83,7.69,38.32c.76,4.15,1.15,8.63,1.09,12.39h14.2c-2.54-7.17-4.1-13.49-5.47-19.09l-4.61-20.06c-.36-2.05-.72-3.99-1.06-5.84-1.51-8.23-2.72-14.79-2.47-18.92l-13.85.08Z"/>
    </clipPath>
    <linearGradient id="linear-gradient-7" x1="-6577.91" y1="4435.65" x2="-6576.91" y2="4435.65" gradientTransform="translate(3308452.75 2230929.49) scale(502.94 -502.94)" xlink:href="#linear-gradient"/>
    <clipPath id="clippath-7">
      <path class="cls-1" d="M747.41,40.76c.53,1.5,1.65,5.78,1.65,15.25v33.33c0,9.4-1.12,13.66-1.65,15.16h13.5c-.53-1.5-1.66-5.76-1.66-15.16v-33.33c0-9.47,1.12-13.75,1.66-15.25h-13.5Z"/>
    </clipPath>
    <linearGradient id="linear-gradient-8" x1="-6577.91" y1="4435.65" x2="-6576.91" y2="4435.65" gradientTransform="translate(3308460.5 2230926.85) scale(502.94 -502.94)" xlink:href="#linear-gradient"/>
    <clipPath id="clippath-8">
      <path class="cls-1" d="M791.61,80.92l-.67-.03.28-.61,13.43-28.48.42.76c1.18,2.09,2.4,4.3,3.33,6.31l10.2,22.02-.66.03c-4.01.18-8.05.28-12.01.28-5.07,0-9.89-.09-14.32-.28M802.17,47.52l.17.22-.12.25-20.12,40.62c-2.28,4.7-5.77,10.72-9.22,15.88h9.47c.29-4.59,2.32-10.03,3-11.15l3.66-8.33h.28c5.45-.21,10.33-.38,14.86-.38,5.44,0,10.77.17,16.2.37h.27s3.07,6.25,3.07,6.25c2.23,5.36,3.6,9.28,3.95,13.23h16.57c-3.98-5.42-6.82-10.77-10.09-16.93l-.32-.61-16.82-35.28-5.42-10.82-16.86-.09c2.96,1.97,5.59,4.34,7.48,6.75"/>
    </clipPath>
    <linearGradient id="linear-gradient-9" x1="-6577.91" y1="4435.66" x2="-6576.91" y2="4435.66" gradientTransform="translate(3308465.3 2230934.35) scale(502.94 -502.94)" xlink:href="#linear-gradient"/>
    <clipPath id="clippath-9">
      <polygon class="cls-1" points="257.33 131.5 257.33 148.32 244.86 131.5 242.58 131.5 242.58 152.23 244.74 152.23 244.74 134.96 257.48 152.23 259.49 152.23 259.49 131.5 257.33 131.5"/>
    </clipPath>
    <linearGradient id="linear-gradient-10" x1="-6570.95" y1="4435.61" x2="-6569.95" y2="4435.61" gradientTransform="translate(2226288.7 1502853.25) scale(338.78 -338.78)" xlink:href="#linear-gradient"/>
    <clipPath id="clippath-10">
      <path class="cls-1" d="M275.79,149.8c-1.01-.43-1.91-1.04-2.66-1.82-.76-.78-1.36-1.7-1.78-2.74-.42-1.05-.63-2.17-.63-3.38s.21-2.36.63-3.39c.42-1.03,1.02-1.94,1.78-2.72.76-.78,1.65-1.39,2.66-1.82,1.02-.44,2.12-.65,3.3-.65s2.28.22,3.29.65c1.01.43,1.89,1.04,2.65,1.82.76.78,1.35,1.69,1.77,2.72.43,1.04.64,2.17.64,3.39s-.21,2.33-.64,3.38c-.42,1.04-1.02,1.96-1.77,2.74-.76.78-1.64,1.39-2.65,1.82-1.01.44-2.1.65-3.29.65s-2.29-.22-3.3-.65M274.91,131.99c-1.29.54-2.43,1.3-3.41,2.28-.97.98-1.74,2.11-2.28,3.4-.54,1.3-.81,2.69-.81,4.19s.27,2.89.81,4.19c.54,1.29,1.3,2.43,2.28,3.4.98.98,2.11,1.74,3.41,2.28,1.29.54,2.69.81,4.19.81s2.87-.27,4.16-.81c1.29-.55,2.43-1.3,3.4-2.28s1.74-2.11,2.28-3.4c.54-1.29.81-2.69.81-4.19s-.27-2.9-.81-4.19c-.55-1.29-1.3-2.43-2.28-3.4s-2.11-1.74-3.4-2.28c-1.3-.55-2.68-.82-4.16-.82s-2.9.27-4.19.82"/>
    </clipPath>
    <linearGradient id="linear-gradient-11" x1="-6570.95" y1="4435.61" x2="-6569.95" y2="4435.61" gradientTransform="translate(2226291.81 1502853.64) scale(338.78 -338.78)" xlink:href="#linear-gradient"/>
    <clipPath id="clippath-11">
      <polygon class="cls-1" points="295.42 131.5 295.42 133.54 302.91 133.54 302.91 152.23 305.19 152.23 305.19 133.54 312.68 133.54 312.68 131.5 295.42 131.5"/>
    </clipPath>
    <linearGradient id="linear-gradient-12" x1="-6570.95" y1="4435.61" x2="-6569.95" y2="4435.61" gradientTransform="translate(2226294.65 1502852.1) scale(338.78 -338.78)" xlink:href="#linear-gradient"/>
    <clipPath id="clippath-12">
      <polygon class="cls-1" points="332.49 131.5 332.49 152.23 334.77 152.23 334.77 142.9 343.01 142.9 343.01 140.92 334.77 140.92 334.77 133.52 347.33 133.52 347.33 131.5 332.49 131.5"/>
    </clipPath>
    <linearGradient id="linear-gradient-13" x1="-6570.95" y1="4435.6" x2="-6569.95" y2="4435.6" gradientTransform="translate(2226301.12 1502847.72) scale(338.78 -338.78)" xlink:href="#linear-gradient"/>
    <clipPath id="clippath-13">
      <path class="cls-1" d="M360.87,149.8c-1.02-.43-1.91-1.04-2.66-1.82-.76-.78-1.36-1.7-1.78-2.74-.42-1.05-.64-2.17-.64-3.38s.21-2.36.64-3.39c.42-1.03,1.02-1.94,1.78-2.72.76-.78,1.65-1.39,2.66-1.82,1.01-.44,2.12-.65,3.3-.65s2.28.22,3.29.65c1.01.43,1.89,1.04,2.65,1.82.76.78,1.35,1.69,1.77,2.72.43,1.04.64,2.17.64,3.39s-.21,2.33-.64,3.38c-.42,1.04-1.01,1.96-1.77,2.74-.76.78-1.64,1.39-2.65,1.82-1.01.44-2.1.65-3.29.65s-2.29-.22-3.3-.65M359.99,131.99c-1.29.54-2.43,1.3-3.41,2.28-.97.98-1.74,2.11-2.28,3.4-.54,1.3-.81,2.69-.81,4.19s.27,2.89.81,4.19c.54,1.29,1.3,2.43,2.28,3.4.98.98,2.11,1.74,3.41,2.28,1.29.54,2.69.81,4.19.81s2.87-.27,4.16-.81c1.29-.55,2.42-1.3,3.4-2.28.98-.98,1.74-2.11,2.28-3.4.54-1.29.81-2.69.81-4.19s-.27-2.9-.81-4.19c-.55-1.29-1.3-2.43-2.28-3.4-.98-.98-2.11-1.74-3.4-2.28-1.29-.55-2.68-.82-4.16-.82s-2.9.27-4.19.82"/>
    </clipPath>
    <linearGradient id="linear-gradient-14" x1="-6570.95" y1="4435.61" x2="-6569.95" y2="4435.61" gradientTransform="translate(2226303.33 1502851.74) scale(338.78 -338.78)" xlink:href="#linear-gradient"/>
    <clipPath id="clippath-14">
      <path class="cls-1" d="M386.03,133.54h6.45c1.4,0,2.52.35,3.36,1.07.84.71,1.26,1.66,1.26,2.84s-.42,2.16-1.26,2.87c-.84.71-1.96,1.07-3.36,1.07h-6.45v-7.85ZM383.75,131.5v20.73h2.28v-8.92h6.63l4.44,8.92h2.52l-4.65-9.21c1.34-.4,2.41-1.08,3.21-2.06.8-.98,1.2-2.15,1.2-3.51,0-1.2-.28-2.25-.84-3.14-.57-.89-1.35-1.58-2.36-2.08-1.01-.49-2.19-.74-3.56-.74h-8.88Z"/>
    </clipPath>
    <linearGradient id="linear-gradient-15" x1="-6570.95" y1="4435.61" x2="-6569.95" y2="4435.61" gradientTransform="translate(2226307.37 1502850.67) scale(338.78 -338.78)" xlink:href="#linear-gradient"/>
    <clipPath id="clippath-15">
      <polygon class="cls-1" points="419.88 131.5 419.88 152.23 434.83 152.23 434.83 150.22 422.16 150.22 422.16 142.75 430.36 142.75 430.36 140.77 422.16 140.77 422.16 133.52 434.71 133.52 434.71 131.5 419.88 131.5"/>
    </clipPath>
    <linearGradient id="linear-gradient-16" x1="-6570.95" y1="4435.61" x2="-6569.95" y2="4435.61" gradientTransform="translate(2226309.83 1502853.39) scale(338.78 -338.78)" xlink:href="#linear-gradient"/>
    <clipPath id="clippath-16">
      <polygon class="cls-1" points="459.15 131.5 451.54 150.1 444.05 131.5 441.59 131.5 450.09 152.23 452.85 152.23 461.46 131.5 459.15 131.5"/>
    </clipPath>
    <linearGradient id="linear-gradient-17" x1="-6570.95" y1="4435.61" x2="-6569.95" y2="4435.61" gradientTransform="translate(2226313.96 1502849.54) scale(338.78 -338.78)" xlink:href="#linear-gradient"/>
    <clipPath id="clippath-17">
      <polygon class="cls-1" points="469.18 131.5 469.18 152.23 484.14 152.23 484.14 150.22 471.47 150.22 471.47 142.75 479.67 142.75 479.67 140.77 471.47 140.77 471.47 133.52 484.02 133.52 484.02 131.5 469.18 131.5"/>
    </clipPath>
    <linearGradient id="linear-gradient-18" x1="-6570.95" y1="4435.61" x2="-6569.95" y2="4435.61" gradientTransform="translate(2226315.87 1502853.23) scale(338.78 -338.78)" xlink:href="#linear-gradient"/>
    <clipPath id="clippath-18">
      <path class="cls-1" d="M495.04,133.54h6.45c1.4,0,2.52.35,3.36,1.07.84.71,1.26,1.66,1.26,2.84s-.42,2.16-1.26,2.87c-.84.71-1.96,1.07-3.36,1.07h-6.45v-7.85ZM492.76,131.5v20.73h2.28v-8.92h6.63l4.44,8.92h2.52l-4.65-9.21c1.34-.4,2.41-1.08,3.21-2.06.8-.98,1.2-2.15,1.2-3.51,0-1.2-.28-2.25-.84-3.14-.57-.89-1.35-1.58-2.36-2.08-1.01-.49-2.19-.74-3.55-.74h-8.88Z"/>
    </clipPath>
    <linearGradient id="linear-gradient-19" x1="-6570.95" y1="4435.61" x2="-6569.95" y2="4435.61" gradientTransform="translate(2226320.5 1502850.67) scale(338.78 -338.78)" xlink:href="#linear-gradient"/>
    <clipPath id="clippath-19">
      <polygon class="cls-1" points="530.16 131.5 523.41 141.78 516.63 131.5 513.96 131.5 522.2 143.79 522.2 152.23 524.48 152.23 524.48 143.88 532.74 131.5 530.16 131.5"/>
    </clipPath>
    <linearGradient id="linear-gradient-20" x1="-6570.95" y1="4435.61" x2="-6569.95" y2="4435.61" gradientTransform="translate(2226324.47 1502846.86) scale(338.78 -338.78)" xlink:href="#linear-gradient"/>
    <clipPath id="clippath-20">
      <path class="cls-1" d="M542.69,142.43h6.31c1.5,0,2.7.35,3.58,1.07.89.71,1.33,1.66,1.33,2.84s-.45,2.13-1.33,2.84c-.89.71-2.08,1.07-3.58,1.07h-6.31v-7.82ZM542.69,133.48h6.01c1.34,0,2.41.32,3.21.95.8.63,1.2,1.49,1.2,2.58s-.4,1.95-1.2,2.58c-.8.64-1.87.95-3.21.95h-6.01v-7.05ZM540.41,131.5v20.73h8.77c1.42,0,2.66-.24,3.72-.71,1.06-.47,1.87-1.15,2.46-2.03.58-.88.87-1.91.87-3.1s-.36-2.24-1.08-3.11c-.72-.87-1.7-1.49-2.95-1.86.99-.41,1.76-1.02,2.33-1.8.56-.79.85-1.72.85-2.78s-.27-2.03-.8-2.83c-.53-.8-1.29-1.42-2.26-1.85-.98-.43-2.14-.65-3.48-.65h-8.41Z"/>
    </clipPath>
    <linearGradient id="linear-gradient-21" x1="-6570.95" y1="4435.61" x2="-6569.95" y2="4435.61" gradientTransform="translate(2226322.71 1502854.79) scale(338.78 -338.78)" xlink:href="#linear-gradient"/>
    <clipPath id="clippath-21">
      <path class="cls-1" d="M571.31,149.8c-1.02-.43-1.91-1.04-2.66-1.82-.76-.78-1.35-1.7-1.78-2.74-.42-1.05-.63-2.17-.63-3.38s.21-2.36.63-3.39c.42-1.03,1.02-1.94,1.78-2.72.76-.78,1.65-1.39,2.66-1.82,1.02-.44,2.12-.65,3.3-.65s2.28.22,3.29.65c1,.43,1.89,1.04,2.65,1.82.76.78,1.35,1.69,1.77,2.72.43,1.04.64,2.17.64,3.39s-.21,2.33-.64,3.38c-.42,1.04-1.02,1.96-1.77,2.74-.76.78-1.65,1.39-2.65,1.82-1.01.44-2.1.65-3.29.65s-2.29-.22-3.3-.65M570.43,131.99c-1.3.54-2.43,1.3-3.41,2.28-.97.98-1.74,2.11-2.28,3.4-.54,1.3-.81,2.69-.81,4.19s.27,2.89.81,4.19c.54,1.29,1.3,2.43,2.28,3.4.98.98,2.11,1.74,3.41,2.28,1.29.54,2.69.81,4.19.81s2.87-.27,4.16-.81c1.29-.55,2.43-1.3,3.4-2.28.98-.98,1.74-2.11,2.28-3.4.54-1.29.81-2.69.81-4.19s-.27-2.9-.81-4.19c-.55-1.29-1.3-2.43-2.28-3.4-.98-.98-2.11-1.74-3.4-2.28-1.29-.55-2.68-.82-4.16-.82s-2.9.27-4.19.82"/>
    </clipPath>
    <linearGradient id="linear-gradient-22" x1="-6570.95" y1="4435.61" x2="-6569.95" y2="4435.61" gradientTransform="translate(2226328.67 1502851.74) scale(338.78 -338.78)" xlink:href="#linear-gradient"/>
    <clipPath id="clippath-22">
      <path class="cls-1" d="M596.47,133.57h4.68c1.21,0,2.32.21,3.35.62,1.02.41,1.93,1,2.7,1.74.77.75,1.36,1.63,1.79,2.64.42,1.01.63,2.1.63,3.29s-.21,2.28-.63,3.28c-.43,1.01-1.02,1.89-1.79,2.64-.77.75-1.67,1.33-2.7,1.75-1.03.42-2.14.62-3.35.62h-4.68v-16.59ZM594.19,131.5v20.73h6.85c1.58,0,3.03-.26,4.37-.77,1.33-.51,2.48-1.23,3.46-2.16.98-.93,1.73-2.03,2.26-3.29.53-1.26.8-2.65.8-4.14s-.27-2.88-.81-4.15c-.54-1.26-1.3-2.36-2.28-3.29-.97-.93-2.13-1.64-3.45-2.16-1.32-.52-2.77-.77-4.35-.77h-6.85Z"/>
    </clipPath>
    <linearGradient id="linear-gradient-23" x1="-6570.95" y1="4435.61" x2="-6569.95" y2="4435.61" gradientTransform="translate(2226332.53 1502849.24) scale(338.78 -338.78)" xlink:href="#linear-gradient"/>
    <clipPath id="clippath-23">
      <polygon class="cls-1" points="632.92 131.5 626.17 141.78 619.39 131.5 616.72 131.5 624.96 143.79 624.96 152.23 627.24 152.23 627.24 143.88 635.5 131.5 632.92 131.5"/>
    </clipPath>
    <linearGradient id="linear-gradient-24" x1="-6570.95" y1="4435.61" x2="-6569.95" y2="4435.61" gradientTransform="translate(2226335.18 1502849.31) scale(338.78 -338.78)" xlink:href="#linear-gradient"/>
    <clipPath id="clippath-24">
      <polygon class="cls-1" points="33.25 99.61 63.12 126.26 63.12 86.22 33.27 59.57 33.25 99.61"/>
    </clipPath>
    <linearGradient id="linear-gradient-25" x1="-6555.04" y1="4426.18" x2="-6554.04" y2="4426.18" gradientTransform="translate(1233950.23 833313.91) scale(188.25 -188.25)" xlink:href="#linear-gradient"/>
    <clipPath id="clippath-25">
      <polygon class="cls-1" points="55.32 58.46 74.37 75.45 74.39 49.92 55.34 32.93 55.32 58.46"/>
    </clipPath>
    <linearGradient id="linear-gradient-26" x1="-6555.04" y1="4426.18" x2="-6554.04" y2="4426.18" gradientTransform="translate(1233928.62 833274.78) scale(188.25 -188.25)" xlink:href="#linear-gradient"/>
    <clipPath id="clippath-26">
      <polygon class="cls-1" points="164.18 86.22 164.18 126.26 194.06 99.61 194.03 59.57 164.18 86.22"/>
    </clipPath>
    <linearGradient id="linear-gradient-27" x1="-6555.04" y1="4426.18" x2="-6554.04" y2="4426.18" gradientTransform="translate(1233985.09 833313.9) scale(188.25 -188.25)" xlink:href="#linear-gradient"/>
    <clipPath id="clippath-27">
      <polygon class="cls-1" points="152.91 49.92 152.93 75.45 171.98 58.46 171.96 32.93 152.91 49.92"/>
    </clipPath>
    <linearGradient id="linear-gradient-28" x1="-6555.04" y1="4426.18" x2="-6554.04" y2="4426.18" gradientTransform="translate(1233954.61 833274.78) scale(188.25 -188.25)" xlink:href="#linear-gradient"/>
    <clipPath id="clippath-28">
      <polygon class="cls-1" points="113.65 141.6 63.12 126.26 63.12 148.8 113.65 164.53 164.18 148.8 164.18 126.26 113.65 141.6"/>
    </clipPath>
    <linearGradient id="linear-gradient-29" x1="-6555.04" y1="4426.15" x2="-6554.04" y2="4426.15" gradientTransform="translate(1234003.19 833360.79) scale(188.25 -188.25)" xlink:href="#linear-gradient"/>
    <clipPath id="clippath-29">
      <path class="cls-1" d="M87.17,85.01s23.94,2.49,23.98,33.86h5.11c.04-31.37,23.86-33.86,23.87-33.86l-26.48-58.61-26.48,58.61Z"/>
    </clipPath>
    <linearGradient id="linear-gradient-30" x1="-6555.04" y1="4426.19" x2="-6554.04" y2="4426.19" gradientTransform="translate(1233953.94 833294.42) scale(188.25 -188.25)" xlink:href="#linear-gradient"/>
  </defs>
  <g id="Layer_1-2" data-name="Layer 1">
    <g>
      <g class="cls-61">
        <rect class="cls-10" x="230.82" y="31.57" width="78.53" height="82.12" transform="translate(-2.41 135.6) rotate(-28.06)"/>
      </g>
      <g class="cls-31">
        <rect class="cls-9" x="298.2" y="26.75" width="93.94" height="91.67" transform="translate(6.44 170.92) rotate(-28.06)"/>
      </g>
      <g class="cls-34">
        <rect class="cls-8" x="383.95" y="32.4" width="75.67" height="80.83" transform="translate(15.34 206.99) rotate(-28.06)"/>
      </g>
      <g class="cls-32">
        <rect class="cls-7" x="446.81" y="41.33" width="41.9" height="62.6" transform="translate(20.83 228.6) rotate(-28.06)"/>
      </g>
      <g class="cls-33">
        <rect class="cls-4" x="477.64" y="27.02" width="89.99" height="90.68" transform="translate(27.41 254.38) rotate(-28.06)"/>
      </g>
      <g class="cls-39">
        <rect class="cls-5" x="553.39" y="27.74" width="92.91" height="89.79" transform="translate(36.36 290.74) rotate(-28.06)"/>
      </g>
      <g class="cls-36">
        <rect class="cls-3" x="637.06" y="24.02" width="106.3" height="97.04" transform="translate(47.02 333.24) rotate(-28.06)"/>
      </g>
      <g class="cls-35">
        <rect class="cls-2" x="733.21" y="41.33" width="41.9" height="62.6" transform="translate(54.5 363.34) rotate(-28.06)"/>
      </g>
      <g class="cls-38">
        <rect class="cls-6" x="762.09" y="27.74" width="92.91" height="89.79" transform="translate(60.89 388.92) rotate(-28.06)"/>
      </g>
      <g class="cls-37">
        <rect class="cls-40" x="238.67" y="128.73" width="24.74" height="26.28" transform="translate(-37.26 136.49) rotate(-28.4)"/>
      </g>
      <g class="cls-16">
        <rect class="cls-41" x="264.6" y="127.38" width="28.95" height="28.97" transform="translate(-33.89 149.83) rotate(-28.4)"/>
      </g>
      <g class="cls-13">
        <rect class="cls-42" x="291.52" y="128.64" width="25.05" height="26.45" transform="translate(-30.88 161.71) rotate(-28.4)"/>
      </g>
      <g class="cls-20">
        <rect class="cls-43" x="328.45" y="129.22" width="22.91" height="25.29" transform="translate(-26.56 178.76) rotate(-28.4)"/>
      </g>
      <g class="cls-18">
        <rect class="cls-45" x="349.69" y="127.38" width="28.95" height="28.97" transform="translate(-23.64 190.3) rotate(-28.4)"/>
      </g>
      <g class="cls-19">
        <rect class="cls-53" x="379.77" y="128.97" width="23.82" height="25.79" transform="translate(-20.33 203.39) rotate(-28.4)"/>
      </g>
      <g class="cls-17">
        <rect class="cls-54" x="415.85" y="129.19" width="23.02" height="25.35" transform="translate(-16.04 220.36) rotate(-28.4)"/>
      </g>
      <g class="cls-14">
        <rect class="cls-55" x="437.86" y="128.02" width="27.34" height="27.69" transform="translate(-13.13 231.86) rotate(-28.4)"/>
      </g>
      <g class="cls-11">
        <rect class="cls-56" x="465.15" y="129.19" width="23.02" height="25.35" transform="translate(-10.1 243.81) rotate(-28.4)"/>
      </g>
      <g class="cls-15">
        <rect class="cls-44" x="488.78" y="128.97" width="23.82" height="25.79" transform="translate(-7.21 255.25) rotate(-28.4)"/>
      </g>
      <g class="cls-12">
        <rect class="cls-47" x="510.16" y="128.28" width="26.38" height="27.17" transform="translate(-4.48 266.02) rotate(-28.4)"/>
      </g>
      <g class="cls-25">
        <rect class="cls-46" x="536.43" y="128.99" width="23.77" height="25.76" transform="translate(-1.48 277.9) rotate(-28.4)"/>
      </g>
      <g class="cls-26">
        <rect class="cls-48" x="560.13" y="127.38" width="28.95" height="28.97" transform="translate(1.69 290.4) rotate(-28.4)"/>
      </g>
      <g class="cls-27">
        <rect class="cls-49" x="590.32" y="128.53" width="25.47" height="26.67" transform="translate(5.11 303.94) rotate(-28.4)"/>
      </g>
      <g class="cls-28">
        <rect class="cls-58" x="612.92" y="128.28" width="26.38" height="27.17" transform="translate(7.89 314.9) rotate(-28.4)"/>
      </g>
      <g class="cls-29">
        <rect class="cls-51" x="14.57" y="58.3" width="67.23" height="69.23" transform="translate(-50.3 57.47) rotate(-42.8)"/>
      </g>
      <g class="cls-30">
        <rect class="cls-59" x="43.42" y="32.11" width="42.88" height="44.16" transform="translate(-19.55 58.49) rotate(-42.8)"/>
      </g>
      <g class="cls-23">
        <rect class="cls-57" x="145.5" y="58.3" width="67.23" height="69.23" transform="translate(-15.44 146.43) rotate(-42.8)"/>
      </g>
      <g class="cls-21">
        <rect class="cls-50" x="141" y="32.11" width="42.88" height="44.16" transform="translate(6.43 124.79) rotate(-42.8)"/>
      </g>
      <g class="cls-24">
        <rect class="cls-60" x="63.57" y="97.02" width="100.15" height="96.74" transform="translate(-68.52 115.92) rotate(-42.8)"/>
      </g>
      <g class="cls-22">
        <rect class="cls-52" x="62.81" y="20.72" width="101.69" height="103.83" transform="translate(-19.09 96.55) rotate(-42.8)"/>
      </g>
    </g>
  </g>
</svg>