<?xml version="1.0" encoding="UTF-8"?>
<svg id="Layer_2" data-name="Layer 2" xmlns="http://www.w3.org/2000/svg" xmlns:xlink="http://www.w3.org/1999/xlink" viewBox="0 0 601.62 114.01">
  <defs>
    <style>
      .cls-1 {
        fill: none;
      }

      .cls-2 {
        fill: url(#linear-gradient-8);
      }

      .cls-3 {
        fill: url(#linear-gradient-7);
      }

      .cls-4 {
        fill: url(#linear-gradient-5);
      }

      .cls-5 {
        fill: url(#linear-gradient-6);
      }

      .cls-6 {
        fill: url(#linear-gradient-9);
      }

      .cls-7 {
        fill: url(#linear-gradient-4);
      }

      .cls-8 {
        fill: url(#linear-gradient-3);
      }

      .cls-9 {
        fill: url(#linear-gradient-2);
      }

      .cls-10 {
        fill: url(#linear-gradient);
      }

      .cls-11 {
        clip-path: url(#clippath-17);
      }

      .cls-12 {
        clip-path: url(#clippath-19);
      }

      .cls-13 {
        clip-path: url(#clippath-11);
      }

      .cls-14 {
        clip-path: url(#clippath-16);
      }

      .cls-15 {
        clip-path: url(#clippath-18);
      }

      .cls-16 {
        clip-path: url(#clippath-10);
      }

      .cls-17 {
        clip-path: url(#clippath-15);
      }

      .cls-18 {
        clip-path: url(#clippath-13);
      }

      .cls-19 {
        clip-path: url(#clippath-14);
      }

      .cls-20 {
        clip-path: url(#clippath-12);
      }

      .cls-21 {
        clip-path: url(#clippath-20);
      }

      .cls-22 {
        clip-path: url(#clippath-21);
      }

      .cls-23 {
        clip-path: url(#clippath-22);
      }

      .cls-24 {
        clip-path: url(#clippath-23);
      }

      .cls-25 {
        clip-path: url(#clippath-1);
      }

      .cls-26 {
        clip-path: url(#clippath-3);
      }

      .cls-27 {
        clip-path: url(#clippath-4);
      }

      .cls-28 {
        clip-path: url(#clippath-2);
      }

      .cls-29 {
        clip-path: url(#clippath-7);
      }

      .cls-30 {
        clip-path: url(#clippath-6);
      }

      .cls-31 {
        clip-path: url(#clippath-9);
      }

      .cls-32 {
        clip-path: url(#clippath-8);
      }

      .cls-33 {
        clip-path: url(#clippath-5);
      }

      .cls-34 {
        fill: url(#linear-gradient-10);
      }

      .cls-35 {
        fill: url(#linear-gradient-11);
      }

      .cls-36 {
        fill: url(#linear-gradient-12);
      }

      .cls-37 {
        fill: url(#linear-gradient-13);
      }

      .cls-38 {
        fill: url(#linear-gradient-19);
      }

      .cls-39 {
        fill: url(#linear-gradient-14);
      }

      .cls-40 {
        fill: url(#linear-gradient-21);
      }

      .cls-41 {
        fill: url(#linear-gradient-20);
      }

      .cls-42 {
        fill: url(#linear-gradient-22);
      }

      .cls-43 {
        fill: url(#linear-gradient-23);
      }

      .cls-44 {
        fill: url(#linear-gradient-15);
      }

      .cls-45 {
        fill: url(#linear-gradient-16);
      }

      .cls-46 {
        fill: url(#linear-gradient-17);
      }

      .cls-47 {
        fill: url(#linear-gradient-18);
      }

      .cls-48 {
        fill: url(#linear-gradient-24);
      }

      .cls-49 {
        clip-path: url(#clippath);
      }
    </style>
    <clipPath id="clippath">
      <path class="cls-1" d="M12.84,32.01l-.3-.11V5.92l.36-.07c2.79-.53,7.5-.84,12.6-.84,10.97,0,18.06,6.3,18.06,16.05,0,8.56-6.22,13.28-17.52,13.28-5.82,0-9.79-1.12-13.21-2.33M.38,2.21c.64,1.53,1.95,5.82,1.88,15.26l-.36,33.33c-.07,9.38-1.31,13.64-1.9,15.15h14.76c-.67-1.53-2.06-5.81-2.13-15.15l-.1-13.98.5.06c3.86.45,8.43.92,13.09.92,19.84,0,28.88-9.68,28.88-18.66,0-11.22-8.21-16.91-24.41-16.91H.38Z"/>
    </clipPath>
    <linearGradient id="linear-gradient" x1="-6820.71" y1="4164" x2="-6819.71" y2="4164" gradientTransform="translate(3430273.19 2094267.19) scale(502.94 -502.94)" gradientUnits="userSpaceOnUse">
      <stop offset="0" stop-color="#867160"/>
      <stop offset=".42" stop-color="#ab9378"/>
      <stop offset=".78" stop-color="#c5aa89"/>
      <stop offset="1" stop-color="#cfb390"/>
    </linearGradient>
    <clipPath id="clippath-1">
      <path class="cls-1" d="M85.18,51.78c-4.58-5.67-7.1-13.27-7.1-21.39,0-15.03,8.12-24.36,21.19-24.36,15.85,0,27.8,13.53,27.8,31.47,0,14.35-8.44,23.99-21.01,23.99-8.54,0-15.77-3.36-20.89-9.71M66.91,36.21c0,17.53,14.72,30.75,34.24,30.75,20.81,0,37.11-15.33,37.11-34.91,0-17.93-14.11-30.94-33.53-30.94-21.2,0-37.82,15.42-37.82,35.09"/>
    </clipPath>
    <linearGradient id="linear-gradient-2" x1="-6820.71" y1="4164.02" x2="-6819.71" y2="4164.02" gradientTransform="translate(3430282.53 2094275.73) scale(502.94 -502.94)" xlink:href="#linear-gradient"/>
    <clipPath id="clippath-2">
      <path class="cls-1" d="M153.42,2.21c.53,1.5,1.65,5.78,1.65,15.25v33.33c0,9.41-1.12,13.67-1.66,15.16l47.63.36,3.95-15.16-.16-.12c-8.76,9.35-24.14,10.74-36.99,10.74-.45,0-.89,0-1.34,0h-.38l-.06-.38c-.41-2.72-.63-6.48-.63-10.59V17.46c0-9.47,1.12-13.75,1.66-15.25h-13.68Z"/>
    </clipPath>
    <linearGradient id="linear-gradient-3" y1="4164.02" y2="4164.02" gradientTransform="translate(3430290.93 2094276.11) scale(502.94 -502.94)" xlink:href="#linear-gradient"/>
    <clipPath id="clippath-3">
      <path class="cls-1" d="M218.42,2.21c.53,1.5,1.66,5.78,1.66,15.25v33.33c0,9.4-1.12,13.66-1.66,15.16h13.51c-.53-1.5-1.66-5.76-1.66-15.16V17.46c0-9.47,1.12-13.75,1.66-15.25h-13.51Z"/>
    </clipPath>
    <linearGradient id="linear-gradient-4" y1="4164.02" y2="4164.02" gradientTransform="translate(3430297.78 2094274.35) scale(502.94 -502.94)" xlink:href="#linear-gradient"/>
    <clipPath id="clippath-4">
      <path class="cls-1" d="M247.08,36.02c0,17.71,14.84,31.6,33.8,31.6,16.09,0,25.12-8.4,29.45-12.43.73-.68,1.33-1.24,1.84-1.65v-2.04c-.02-5.52-.03-11.23.84-14.65h-12.52c2.03,4.19,2.03,10.59,2.03,18.57v.21l-.16.13c-3.84,3.24-9.61,5.09-15.85,5.09-16.75,0-29.86-13.5-29.86-30.73,0-15.71,7.59-24.73,20.83-24.73,12.23,0,25.41,8.37,28.79,14.25l.12-.06,1.63-13.41c-2.99-1.69-11.22-6.17-23.75-6.17-24.42,0-37.19,18.12-37.19,36.02"/>
    </clipPath>
    <linearGradient id="linear-gradient-5" x1="-6820.71" y1="4164.02" x2="-6819.71" y2="4164.02" gradientTransform="translate(3430303.37 2094276.42) scale(502.94 -502.94)" xlink:href="#linear-gradient"/>
    <clipPath id="clippath-5">
      <path class="cls-1" d="M340.33,42.37l-.67-.03.28-.61,13.43-28.48.42.76c1.18,2.09,2.4,4.3,3.33,6.31l10.2,22.02-.67.03c-4.01.18-8.05.28-12,.28-5.07,0-9.89-.09-14.32-.28M350.89,8.97l.17.22-.12.25-20.11,40.62c-2.28,4.7-5.77,10.72-9.22,15.88h9.47c.28-4.59,2.3-10.03,2.99-11.15l3.66-8.33h.28c5.45-.21,10.33-.38,14.86-.38,5.44,0,10.77.17,16.2.37h.27s3.07,6.25,3.07,6.25c2.23,5.36,3.6,9.28,3.95,13.23h16.57c-3.96-5.39-6.78-10.7-10.03-16.81l-.38-.72-16.82-35.28-5.42-10.82-16.86-.09c2.96,1.97,5.59,4.34,7.48,6.75"/>
    </clipPath>
    <linearGradient id="linear-gradient-6" x1="-6820.71" y1="4164.03" x2="-6819.71" y2="4164.03" gradientTransform="translate(3430311.68 2094282.17) scale(502.94 -502.94)" xlink:href="#linear-gradient"/>
    <clipPath id="clippath-6">
      <path class="cls-1" d="M463.36,2.12c.31,2.43.28,4.07-.8,7.18l-14.34,41.35-12.31-29.25c-2.71-6.46-5.51-13.14-7.12-19.19h-14.31c1.19,1.21,2.19,2.37,3.05,3.75l.09.15-.04.17-9.24,45.78c-.71,3.46-1.88,9.16-3.92,13.89h7.57c-.34-3.29.06-8.96.69-12.46l8.06-43.03,23.08,55.4h3.32l19.47-56.44,1.23,5.83,7.69,38.32c.76,4.15,1.15,8.63,1.09,12.39h14.2c-2.54-7.17-4.1-13.49-5.47-19.09l-4.61-20.06c-.36-2.05-.72-3.99-1.06-5.84-1.51-8.23-2.72-14.79-2.47-18.92l-13.85.08Z"/>
    </clipPath>
    <linearGradient id="linear-gradient-7" x1="-6820.71" y1="4164.02" x2="-6819.71" y2="4164.02" gradientTransform="translate(3430323.01 2094278.15) scale(502.94 -502.94)" xlink:href="#linear-gradient"/>
    <clipPath id="clippath-7">
      <path class="cls-1" d="M504.83,2.21c.53,1.5,1.65,5.78,1.65,15.25v33.33c0,9.4-1.12,13.66-1.65,15.16h13.5c-.53-1.5-1.66-5.76-1.66-15.16V17.46c0-9.47,1.12-13.75,1.66-15.25h-13.5Z"/>
    </clipPath>
    <linearGradient id="linear-gradient-8" x1="-6820.71" y1="4164.02" x2="-6819.71" y2="4164.02" gradientTransform="translate(3430330.75 2094275.51) scale(502.94 -502.94)" xlink:href="#linear-gradient"/>
    <clipPath id="clippath-8">
      <path class="cls-1" d="M549.03,42.37l-.67-.03.28-.61,13.43-28.48.42.76c1.18,2.09,2.4,4.3,3.33,6.31l10.2,22.02-.66.03c-4.01.18-8.05.28-12.01.28-5.07,0-9.89-.09-14.32-.28M559.59,8.97l.17.22-.12.25-20.12,40.62c-2.28,4.7-5.77,10.72-9.22,15.88h9.47c.29-4.59,2.32-10.03,3-11.15l3.66-8.33h.28c5.45-.21,10.33-.38,14.86-.38,5.44,0,10.77.17,16.2.37h.27s3.07,6.25,3.07,6.25c2.23,5.36,3.6,9.28,3.95,13.23h16.57c-3.98-5.42-6.82-10.77-10.09-16.93l-.32-.61-16.82-35.28-5.42-10.82-16.86-.09c2.96,1.97,5.59,4.34,7.48,6.75"/>
    </clipPath>
    <linearGradient id="linear-gradient-9" x1="-6820.71" y1="4164.03" x2="-6819.71" y2="4164.03" gradientTransform="translate(3430335.65 2094283.09) scale(502.94 -502.94)" xlink:href="#linear-gradient"/>
    <clipPath id="clippath-9">
      <polygon class="cls-1" points="14.75 92.95 14.75 109.77 2.28 92.95 0 92.95 0 113.68 2.16 113.68 2.16 96.41 14.9 113.68 16.91 113.68 16.91 92.95 14.75 92.95"/>
    </clipPath>
    <linearGradient id="linear-gradient-10" x1="-6813.86" y1="4163.79" x2="-6812.86" y2="4163.79" gradientTransform="translate(2308339.38 1410724.78) scale(338.78 -338.78)" xlink:href="#linear-gradient"/>
    <clipPath id="clippath-10">
      <path class="cls-1" d="M33.21,111.25c-1.01-.43-1.91-1.04-2.66-1.82-.76-.78-1.36-1.7-1.78-2.74-.42-1.05-.63-2.17-.63-3.38s.21-2.36.63-3.39c.42-1.03,1.02-1.94,1.78-2.72.76-.78,1.65-1.39,2.66-1.82,1.02-.44,2.12-.65,3.3-.65s2.28.22,3.29.65c1.01.43,1.89,1.04,2.65,1.82.76.78,1.35,1.69,1.77,2.72.43,1.04.64,2.17.64,3.39s-.21,2.33-.64,3.38c-.42,1.04-1.02,1.96-1.77,2.74-.76.78-1.64,1.39-2.65,1.82-1.01.44-2.1.65-3.29.65s-2.29-.22-3.3-.65M32.32,93.44c-1.29.54-2.43,1.3-3.41,2.28-.97.98-1.74,2.11-2.28,3.4-.54,1.3-.81,2.69-.81,4.19s.27,2.89.81,4.19c.54,1.29,1.3,2.43,2.28,3.4.98.98,2.11,1.74,3.41,2.28,1.29.54,2.69.81,4.19.81s2.87-.27,4.16-.81c1.29-.55,2.43-1.3,3.4-2.28s1.74-2.11,2.28-3.4c.54-1.29.81-2.69.81-4.19s-.27-2.9-.81-4.19c-.55-1.29-1.3-2.43-2.28-3.4s-2.11-1.74-3.4-2.28c-1.3-.55-2.68-.82-4.16-.82s-2.9.27-4.19.82"/>
    </clipPath>
    <linearGradient id="linear-gradient-11" x1="-6813.86" y1="4163.79" x2="-6812.86" y2="4163.79" gradientTransform="translate(2308342.51 1410725.19) scale(338.78 -338.78)" xlink:href="#linear-gradient"/>
    <clipPath id="clippath-11">
      <polygon class="cls-1" points="52.83 92.95 52.83 94.99 60.33 94.99 60.33 113.68 62.61 113.68 62.61 94.99 70.1 94.99 70.1 92.95 52.83 92.95"/>
    </clipPath>
    <linearGradient id="linear-gradient-12" x1="-6813.86" y1="4163.78" x2="-6812.86" y2="4163.78" gradientTransform="translate(2308345.36 1410723.65) scale(338.78 -338.78)" xlink:href="#linear-gradient"/>
    <clipPath id="clippath-12">
      <polygon class="cls-1" points="89.91 92.95 89.91 113.68 92.19 113.68 92.19 104.35 100.42 104.35 100.42 102.37 92.19 102.37 92.19 94.97 104.75 94.97 104.75 92.95 89.91 92.95"/>
    </clipPath>
    <linearGradient id="linear-gradient-13" x1="-6813.86" y1="4163.78" x2="-6812.86" y2="4163.78" gradientTransform="translate(2308351.69 1410719.15) scale(338.78 -338.78)" xlink:href="#linear-gradient"/>
    <clipPath id="clippath-13">
      <path class="cls-1" d="M118.29,111.25c-1.02-.43-1.91-1.04-2.66-1.82-.76-.78-1.36-1.7-1.78-2.74-.42-1.05-.64-2.17-.64-3.38s.21-2.36.64-3.39c.42-1.03,1.02-1.94,1.78-2.72.76-.78,1.65-1.39,2.66-1.82,1.01-.44,2.12-.65,3.3-.65s2.28.22,3.29.65c1.01.43,1.89,1.04,2.65,1.82.76.78,1.35,1.69,1.77,2.72.43,1.04.64,2.17.64,3.39s-.21,2.33-.64,3.38c-.42,1.04-1.01,1.96-1.77,2.74-.76.78-1.64,1.39-2.65,1.82-1.01.44-2.1.65-3.29.65s-2.29-.22-3.3-.65M117.41,93.44c-1.29.54-2.43,1.3-3.41,2.28-.97.98-1.74,2.11-2.28,3.4-.54,1.3-.81,2.69-.81,4.19s.27,2.89.81,4.19c.54,1.29,1.3,2.43,2.28,3.4.98.98,2.11,1.74,3.41,2.28,1.29.54,2.69.81,4.19.81s2.87-.27,4.16-.81c1.29-.55,2.42-1.3,3.4-2.28.98-.98,1.74-2.11,2.28-3.4.54-1.29.81-2.69.81-4.19s-.27-2.9-.81-4.19c-.55-1.29-1.3-2.43-2.28-3.4-.98-.98-2.11-1.74-3.4-2.28-1.29-.55-2.68-.82-4.16-.82s-2.9.27-4.19.82"/>
    </clipPath>
    <linearGradient id="linear-gradient-14" x1="-6813.86" y1="4163.79" x2="-6812.86" y2="4163.79" gradientTransform="translate(2308353.95 1410723.22) scale(338.78 -338.78)" xlink:href="#linear-gradient"/>
    <clipPath id="clippath-14">
      <path class="cls-1" d="M143.45,94.99h6.45c1.4,0,2.52.35,3.36,1.07.84.71,1.26,1.66,1.26,2.84s-.42,2.16-1.26,2.87c-.84.71-1.96,1.07-3.36,1.07h-6.45v-7.85ZM141.17,92.95v20.73h2.28v-8.92h6.63l4.44,8.92h2.52l-4.65-9.21c1.34-.4,2.41-1.08,3.21-2.06.8-.98,1.2-2.15,1.2-3.51,0-1.2-.28-2.25-.84-3.14-.57-.89-1.35-1.58-2.36-2.08-1.01-.49-2.19-.74-3.56-.74h-8.88Z"/>
    </clipPath>
    <linearGradient id="linear-gradient-15" x1="-6813.86" y1="4163.79" x2="-6812.86" y2="4163.79" gradientTransform="translate(2308357.95 1410722.1) scale(338.78 -338.78)" xlink:href="#linear-gradient"/>
    <clipPath id="clippath-15">
      <polygon class="cls-1" points="177.3 92.95 177.3 113.68 192.25 113.68 192.25 111.67 179.58 111.67 179.58 104.2 187.78 104.2 187.78 102.22 179.58 102.22 179.58 94.97 192.13 94.97 192.13 92.95 177.3 92.95"/>
    </clipPath>
    <linearGradient id="linear-gradient-16" x1="-6813.86" y1="4163.79" x2="-6812.86" y2="4163.79" gradientTransform="translate(2308360.52 1410724.92) scale(338.78 -338.78)" xlink:href="#linear-gradient"/>
    <clipPath id="clippath-16">
      <polygon class="cls-1" points="216.57 92.95 208.96 111.55 201.47 92.95 199.01 92.95 207.51 113.68 210.26 113.68 218.88 92.95 216.57 92.95"/>
    </clipPath>
    <linearGradient id="linear-gradient-17" x1="-6813.86" y1="4163.78" x2="-6812.86" y2="4163.78" gradientTransform="translate(2308364.57 1410721.01) scale(338.78 -338.78)" xlink:href="#linear-gradient"/>
    <clipPath id="clippath-17">
      <polygon class="cls-1" points="226.6 92.95 226.6 113.68 241.56 113.68 241.56 111.67 228.89 111.67 228.89 104.2 237.09 104.2 237.09 102.22 228.89 102.22 228.89 94.97 241.44 94.97 241.44 92.95 226.6 92.95"/>
    </clipPath>
    <linearGradient id="linear-gradient-18" x1="-6813.86" y1="4163.79" x2="-6812.86" y2="4163.79" gradientTransform="translate(2308366.55 1410724.76) scale(338.78 -338.78)" xlink:href="#linear-gradient"/>
    <clipPath id="clippath-18">
      <path class="cls-1" d="M252.46,94.99h6.45c1.4,0,2.52.35,3.36,1.07.84.71,1.26,1.66,1.26,2.84s-.42,2.16-1.26,2.87c-.84.71-1.96,1.07-3.36,1.07h-6.45v-7.85ZM250.18,92.95v20.73h2.28v-8.92h6.63l4.44,8.92h2.52l-4.65-9.21c1.34-.4,2.41-1.08,3.21-2.06.8-.98,1.2-2.15,1.2-3.51,0-1.2-.28-2.25-.84-3.14-.57-.89-1.35-1.58-2.36-2.08-1.01-.49-2.19-.74-3.55-.74h-8.88Z"/>
    </clipPath>
    <linearGradient id="linear-gradient-19" x1="-6813.86" y1="4163.79" x2="-6812.86" y2="4163.79" gradientTransform="translate(2308371.07 1410722.1) scale(338.78 -338.78)" xlink:href="#linear-gradient"/>
    <clipPath id="clippath-19">
      <polygon class="cls-1" points="287.58 92.95 280.83 103.23 274.05 92.95 271.38 92.95 279.62 105.24 279.62 113.68 281.89 113.68 281.89 105.33 290.16 92.95 287.58 92.95"/>
    </clipPath>
    <linearGradient id="linear-gradient-20" x1="-6813.86" y1="4163.78" x2="-6812.86" y2="4163.78" gradientTransform="translate(2308374.96 1410718.23) scale(338.78 -338.78)" xlink:href="#linear-gradient"/>
    <clipPath id="clippath-20">
      <path class="cls-1" d="M300.11,103.88h6.31c1.5,0,2.7.35,3.58,1.07.89.71,1.33,1.66,1.33,2.84s-.45,2.13-1.33,2.84c-.89.71-2.08,1.07-3.58,1.07h-6.31v-7.82ZM300.11,94.93h6.01c1.34,0,2.41.32,3.21.95.8.63,1.2,1.49,1.2,2.58s-.4,1.95-1.2,2.58c-.8.64-1.87.95-3.21.95h-6.01v-7.05ZM297.82,92.95v20.73h8.77c1.42,0,2.66-.24,3.72-.71,1.06-.47,1.87-1.15,2.46-2.03.58-.88.87-1.91.87-3.1s-.36-2.24-1.08-3.11c-.72-.87-1.7-1.49-2.95-1.86.99-.41,1.76-1.02,2.33-1.8.56-.79.85-1.72.85-2.78s-.27-2.03-.8-2.83c-.53-.8-1.29-1.42-2.26-1.85-.98-.43-2.14-.65-3.48-.65h-8.41Z"/>
    </clipPath>
    <linearGradient id="linear-gradient-21" x1="-6813.86" y1="4163.78" x2="-6812.86" y2="4163.78" gradientTransform="translate(2308373.5 1410726.42) scale(338.78 -338.78)" xlink:href="#linear-gradient"/>
    <clipPath id="clippath-21">
      <path class="cls-1" d="M328.73,111.25c-1.02-.43-1.91-1.04-2.66-1.82-.76-.78-1.35-1.7-1.78-2.74-.42-1.05-.63-2.17-.63-3.38s.21-2.36.63-3.39c.42-1.03,1.02-1.94,1.78-2.72.76-.78,1.65-1.39,2.66-1.82,1.02-.44,2.12-.65,3.3-.65s2.28.22,3.29.65c1,.43,1.89,1.04,2.65,1.82.76.78,1.35,1.69,1.77,2.72.43,1.04.64,2.17.64,3.39s-.21,2.33-.64,3.38c-.42,1.04-1.02,1.96-1.77,2.74-.76.78-1.65,1.39-2.65,1.82-1.01.44-2.1.65-3.29.65s-2.29-.22-3.3-.65M327.85,93.44c-1.3.54-2.43,1.3-3.41,2.28-.97.98-1.74,2.11-2.28,3.4-.54,1.3-.81,2.69-.81,4.19s.27,2.89.81,4.19c.54,1.29,1.3,2.43,2.28,3.4.98.98,2.11,1.74,3.41,2.28,1.29.54,2.69.81,4.19.81s2.87-.27,4.16-.81c1.29-.55,2.43-1.3,3.4-2.28.98-.98,1.74-2.11,2.28-3.4.54-1.29.81-2.69.81-4.19s-.27-2.9-.81-4.19c-.55-1.29-1.3-2.43-2.28-3.4-.98-.98-2.11-1.74-3.4-2.28-1.29-.55-2.68-.82-4.16-.82s-2.9.27-4.19.82"/>
    </clipPath>
    <linearGradient id="linear-gradient-22" x1="-6813.86" y1="4163.79" x2="-6812.86" y2="4163.79" gradientTransform="translate(2308379.29 1410723.22) scale(338.78 -338.78)" xlink:href="#linear-gradient"/>
    <clipPath id="clippath-22">
      <path class="cls-1" d="M353.89,95.02h4.68c1.21,0,2.32.21,3.35.62,1.02.41,1.93,1,2.7,1.74.77.75,1.36,1.63,1.79,2.64.42,1.01.63,2.1.63,3.29s-.21,2.28-.63,3.28c-.43,1.01-1.02,1.89-1.79,2.64-.77.75-1.67,1.33-2.7,1.75-1.03.42-2.14.62-3.35.62h-4.68v-16.59ZM351.61,92.95v20.73h6.85c1.58,0,3.03-.26,4.37-.77,1.33-.51,2.48-1.23,3.46-2.16.98-.93,1.73-2.03,2.26-3.29.53-1.26.8-2.65.8-4.14s-.27-2.88-.81-4.15c-.54-1.26-1.3-2.36-2.28-3.29-.97-.93-2.13-1.64-3.45-2.16-1.32-.52-2.77-.77-4.35-.77h-6.85Z"/>
    </clipPath>
    <linearGradient id="linear-gradient-23" x1="-6813.86" y1="4163.78" x2="-6812.86" y2="4163.78" gradientTransform="translate(2308383.13 1410720.7) scale(338.78 -338.78)" xlink:href="#linear-gradient"/>
    <clipPath id="clippath-23">
      <polygon class="cls-1" points="390.34 92.95 383.59 103.23 376.81 92.95 374.14 92.95 382.38 105.24 382.38 113.68 384.66 113.68 384.66 105.33 392.92 92.95 390.34 92.95"/>
    </clipPath>
    <linearGradient id="linear-gradient-24" x1="-6813.86" y1="4163.78" x2="-6812.86" y2="4163.78" gradientTransform="translate(2308385.78 1410720.77) scale(338.78 -338.78)" xlink:href="#linear-gradient"/>
  </defs>
  <g id="Layer_1-2" data-name="Layer 1">
    <g class="cls-49">
      <rect class="cls-10" x="-11.76" y="-6.98" width="78.53" height="82.12" transform="translate(-12.8 16.95) rotate(-28.06)"/>
    </g>
    <g class="cls-25">
      <rect class="cls-9" x="55.62" y="-11.8" width="93.94" height="91.67" transform="translate(-3.95 52.26) rotate(-28.06)"/>
    </g>
    <g class="cls-28">
      <rect class="cls-8" x="141.37" y="-6.15" width="75.67" height="80.83" transform="translate(4.95 88.34) rotate(-28.06)"/>
    </g>
    <g class="cls-26">
      <rect class="cls-7" x="204.22" y="2.78" width="41.9" height="62.6" transform="translate(10.44 109.94) rotate(-28.06)"/>
    </g>
    <g class="cls-27">
      <rect class="cls-4" x="235.05" y="-11.53" width="89.99" height="90.68" transform="translate(17.02 135.73) rotate(-28.06)"/>
    </g>
    <g class="cls-33">
      <rect class="cls-5" x="310.81" y="-10.81" width="92.91" height="89.79" transform="translate(25.97 172.08) rotate(-28.06)"/>
    </g>
    <g class="cls-30">
      <rect class="cls-3" x="394.48" y="-14.52" width="106.3" height="97.04" transform="translate(36.64 214.59) rotate(-28.06)"/>
    </g>
    <g class="cls-29">
      <rect class="cls-2" x="490.63" y="2.78" width="41.9" height="62.6" transform="translate(44.12 244.68) rotate(-28.06)"/>
    </g>
    <g class="cls-32">
      <rect class="cls-6" x="519.5" y="-10.81" width="92.91" height="89.79" transform="translate(50.51 270.27) rotate(-28.06)"/>
    </g>
    <g class="cls-31">
      <rect class="cls-34" x="-3.91" y="90.18" width="24.74" height="26.28" transform="translate(-48.13 16.46) rotate(-28.4)"/>
    </g>
    <g class="cls-16">
      <rect class="cls-35" x="22.02" y="88.83" width="28.95" height="28.97" transform="translate(-44.75 29.8) rotate(-28.4)"/>
    </g>
    <g class="cls-13">
      <rect class="cls-36" x="48.94" y="90.09" width="25.05" height="26.45" transform="translate(-41.75 41.67) rotate(-28.4)"/>
    </g>
    <g class="cls-20">
      <rect class="cls-37" x="85.87" y="90.67" width="22.91" height="25.29" transform="translate(-37.43 58.73) rotate(-28.4)"/>
    </g>
    <g class="cls-18">
      <rect class="cls-39" x="107.11" y="88.83" width="28.95" height="28.97" transform="translate(-34.51 70.27) rotate(-28.4)"/>
    </g>
    <g class="cls-19">
      <rect class="cls-44" x="137.19" y="90.42" width="23.82" height="25.79" transform="translate(-31.2 83.36) rotate(-28.4)"/>
    </g>
    <g class="cls-17">
      <rect class="cls-45" x="173.27" y="90.64" width="23.02" height="25.35" transform="translate(-26.9 100.33) rotate(-28.4)"/>
    </g>
    <g class="cls-14">
      <rect class="cls-46" x="195.28" y="89.47" width="27.34" height="27.69" transform="translate(-23.99 111.83) rotate(-28.4)"/>
    </g>
    <g class="cls-11">
      <rect class="cls-47" x="222.57" y="90.64" width="23.02" height="25.35" transform="translate(-20.97 123.78) rotate(-28.4)"/>
    </g>
    <g class="cls-15">
      <rect class="cls-38" x="246.2" y="90.42" width="23.82" height="25.79" transform="translate(-18.07 135.22) rotate(-28.4)"/>
    </g>
    <g class="cls-12">
      <rect class="cls-41" x="267.58" y="89.73" width="26.38" height="27.17" transform="translate(-15.35 145.99) rotate(-28.4)"/>
    </g>
    <g class="cls-21">
      <rect class="cls-40" x="293.85" y="90.44" width="23.77" height="25.76" transform="translate(-12.34 157.87) rotate(-28.4)"/>
    </g>
    <g class="cls-22">
      <rect class="cls-42" x="317.54" y="88.83" width="28.95" height="28.97" transform="translate(-9.18 170.37) rotate(-28.4)"/>
    </g>
    <g class="cls-23">
      <rect class="cls-43" x="347.74" y="89.98" width="25.47" height="26.67" transform="translate(-5.75 183.91) rotate(-28.4)"/>
    </g>
    <g class="cls-24">
      <rect class="cls-48" x="370.34" y="89.73" width="26.38" height="27.17" transform="translate(-2.98 194.87) rotate(-28.4)"/>
    </g>
  </g>
</svg>