<svg xmlns="http://www.w3.org/2000/svg" viewBox="0 0 227.3 214.91" fill="#161616" opacity="1">
  <g>
    <polygon points="33.25 99.61 63.12 126.26 63.12 86.22 33.27 59.57 33.25 99.61"/>
    <polygon points="55.32 58.46 74.37 75.45 74.39 49.92 55.34 32.93 55.32 58.46"/>
    <polygon points="164.18 86.22 164.18 126.26 194.06 99.61 194.03 59.57 164.18 86.22"/>
    <polygon points="152.91 49.92 152.93 75.45 171.98 58.46 171.96 32.93 152.91 49.92"/>
    <polygon points="113.65 141.6 63.12 126.26 63.12 148.8 113.65 164.53 164.18 148.8 164.18 126.26 113.65 141.6"/>
    <path d="M87.17,85.01s23.94,2.49,23.98,33.86h5.11c.04-31.37,23.86-33.86,23.87-33.86l-26.48-58.61-26.48,58.61Z"/>
  </g>
</svg>
