<?xml version="1.0" encoding="UTF-8"?>
<svg id="Layer_2" xmlns="http://www.w3.org/2000/svg" xmlns:xlink="http://www.w3.org/1999/xlink" version="1.1" viewBox="0 0 870.7 214.9">
  <!-- Generator: Adobe Illustrator 30.1.0, SVG Export Plug-In . SVG Version: 2.1.1 Build 136)  -->
  <defs>
    <style>
      .st0 {
        fill: none;
      }

      .st1 {
        fill: url(#linear-gradient2);
      }

      .st2 {
        fill: url(#linear-gradient1);
      }

      .st3 {
        fill: url(#linear-gradient9);
      }

      .st4 {
        fill: url(#linear-gradient3);
      }

      .st5 {
        fill: url(#linear-gradient6);
      }

      .st6 {
        fill: url(#linear-gradient8);
      }

      .st7 {
        fill: url(#linear-gradient7);
      }

      .st8 {
        fill: url(#linear-gradient5);
      }

      .st9 {
        fill: url(#linear-gradient4);
      }

      .st10 {
        fill: url(#linear-gradient30);
      }

      .st11 {
        fill: url(#linear-gradient28);
      }

      .st12 {
        fill: url(#linear-gradient29);
      }

      .st13 {
        fill: url(#linear-gradient18);
      }

      .st14 {
        fill: url(#linear-gradient13);
      }

      .st15 {
        fill: url(#linear-gradient12);
      }

      .st16 {
        fill: url(#linear-gradient15);
      }

      .st17 {
        fill: url(#linear-gradient16);
      }

      .st18 {
        fill: url(#linear-gradient11);
      }

      .st19 {
        fill: url(#linear-gradient10);
      }

      .st20 {
        fill: url(#linear-gradient17);
      }

      .st21 {
        fill: url(#linear-gradient14);
      }

      .st22 {
        fill: url(#linear-gradient19);
      }

      .st23 {
        fill: url(#linear-gradient23);
      }

      .st24 {
        fill: url(#linear-gradient22);
      }

      .st25 {
        fill: url(#linear-gradient24);
      }

      .st26 {
        fill: url(#linear-gradient25);
      }

      .st27 {
        fill: url(#linear-gradient21);
      }

      .st28 {
        fill: url(#linear-gradient20);
      }

      .st29 {
        fill: url(#linear-gradient27);
      }

      .st30 {
        fill: url(#linear-gradient26);
      }

      .st31 {
        fill: url(#linear-gradient);
      }

      .st32 {
        clip-path: url(#clippath-17);
      }

      .st33 {
        clip-path: url(#clippath-19);
      }

      .st34 {
        clip-path: url(#clippath-11);
      }

      .st35 {
        clip-path: url(#clippath-16);
      }

      .st36 {
        clip-path: url(#clippath-18);
      }

      .st37 {
        clip-path: url(#clippath-10);
      }

      .st38 {
        clip-path: url(#clippath-15);
      }

      .st39 {
        clip-path: url(#clippath-13);
      }

      .st40 {
        clip-path: url(#clippath-14);
      }

      .st41 {
        clip-path: url(#clippath-12);
      }

      .st42 {
        clip-path: url(#clippath-30);
      }

      .st43 {
        clip-path: url(#clippath-27);
      }

      .st44 {
        clip-path: url(#clippath-29);
      }

      .st45 {
        clip-path: url(#clippath-26);
      }

      .st46 {
        clip-path: url(#clippath-28);
      }

      .st47 {
        clip-path: url(#clippath-20);
      }

      .st48 {
        clip-path: url(#clippath-21);
      }

      .st49 {
        clip-path: url(#clippath-22);
      }

      .st50 {
        clip-path: url(#clippath-23);
      }

      .st51 {
        clip-path: url(#clippath-24);
      }

      .st52 {
        clip-path: url(#clippath-25);
      }

      .st53 {
        clip-path: url(#clippath-1);
      }

      .st54 {
        clip-path: url(#clippath-3);
      }

      .st55 {
        clip-path: url(#clippath-4);
      }

      .st56 {
        clip-path: url(#clippath-2);
      }

      .st57 {
        clip-path: url(#clippath-7);
      }

      .st58 {
        clip-path: url(#clippath-6);
      }

      .st59 {
        clip-path: url(#clippath-9);
      }

      .st60 {
        clip-path: url(#clippath-8);
      }

      .st61 {
        clip-path: url(#clippath-5);
      }

      .st62 {
        clip-path: url(#clippath);
      }
    </style>
    <clipPath id="clippath">
      <path class="st0" d="M255.4,70.6h-.3v-26.1h.4c2.8-.6,7.5-.9,12.6-.9,11,0,18.1,6.3,18.1,16s-6.2,13.3-17.5,13.3-9.8-1.1-13.2-2.3M243,40.8c.6,1.5,1.9,5.8,1.9,15.3l-.4,33.3c0,9.4-1.3,13.6-1.9,15.1h14.8c-.7-1.5-2.1-5.8-2.1-15.1v-14c-.1,0,.4,0,.4,0,3.9.4,8.4.9,13.1.9,19.8,0,28.9-9.7,28.9-18.7s-8.2-16.9-24.4-16.9h-30.2,0Z"/>
    </clipPath>
    <linearGradient id="linear-gradient" x1="-7828.9" y1="-1841.6" x2="-7827.9" y2="-1841.6" gradientTransform="translate(3937592.7 926311.3) scale(502.9)" gradientUnits="userSpaceOnUse">
      <stop offset="0" stop-color="#867160"/>
      <stop offset=".4" stop-color="#ab9378"/>
      <stop offset=".8" stop-color="#c5aa89"/>
      <stop offset="1" stop-color="#cfb390"/>
    </linearGradient>
    <clipPath id="clippath-1">
      <path class="st0" d="M327.8,90.3c-4.6-5.7-7.1-13.3-7.1-21.4,0-15,8.1-24.4,21.2-24.4s27.8,13.5,27.8,31.5-8.4,24-21,24-15.8-3.4-20.9-9.7M309.5,74.8c0,17.5,14.7,30.8,34.2,30.8s37.1-15.3,37.1-34.9-14.1-30.9-33.5-30.9-37.8,15.4-37.8,35.1h0Z"/>
    </clipPath>
    <linearGradient id="linear-gradient1" x1="-7828.9" y1="-1841.7" x2="-7827.9" y2="-1841.7" gradientTransform="translate(3937602 926319.8) scale(502.9)" gradientUnits="userSpaceOnUse">
      <stop offset="0" stop-color="#867160"/>
      <stop offset=".4" stop-color="#ab9378"/>
      <stop offset=".8" stop-color="#c5aa89"/>
      <stop offset="1" stop-color="#cfb390"/>
    </linearGradient>
    <clipPath id="clippath-2">
      <path class="st0" d="M396,40.8c.5,1.5,1.6,5.8,1.6,15.2v33.3c0,9.4-1.1,13.7-1.7,15.2l47.6.4,4-15.2h-.2c-8.8,9.2-24.1,10.6-37,10.6h-1.7v-.4c-.5-2.7-.7-6.5-.7-10.6v-33.3c0-9.5,1.1-13.8,1.7-15.2h-13.7,0Z"/>
    </clipPath>
    <linearGradient id="linear-gradient2" x1="-7828.9" y1="-1841.7" x2="-7827.9" y2="-1841.7" gradientTransform="translate(3937610.2 926320.3) scale(502.9)" gradientUnits="userSpaceOnUse">
      <stop offset="0" stop-color="#867160"/>
      <stop offset=".4" stop-color="#ab9378"/>
      <stop offset=".8" stop-color="#c5aa89"/>
      <stop offset="1" stop-color="#cfb390"/>
    </linearGradient>
    <clipPath id="clippath-3">
      <path class="st0" d="M461,40.8c.5,1.5,1.7,5.8,1.7,15.2v33.3c0,9.4-1.1,13.7-1.7,15.2h13.5c-.5-1.5-1.7-5.8-1.7-15.2v-33.3c0-9.5,1.1-13.8,1.7-15.2h-13.5Z"/>
    </clipPath>
    <linearGradient id="linear-gradient3" x1="-7828.9" y1="-1841.7" x2="-7827.9" y2="-1841.7" gradientTransform="translate(3937617.2 926318.6) scale(502.9)" gradientUnits="userSpaceOnUse">
      <stop offset="0" stop-color="#867160"/>
      <stop offset=".4" stop-color="#ab9378"/>
      <stop offset=".8" stop-color="#c5aa89"/>
      <stop offset="1" stop-color="#cfb390"/>
    </linearGradient>
    <clipPath id="clippath-4">
      <path class="st0" d="M489.7,74.6c0,17.7,14.8,31.6,33.8,31.6s25.1-8.4,29.5-12.4c.7-.7,1.3-1.2,1.8-1.7v-2c0-5.5,0-11.2.8-14.6h-12.5c2,4.2,2,10.6,2,18.6v.2h-.2c-3.8,3.4-9.6,5.2-15.8,5.2-16.8,0-29.9-13.5-29.9-30.7s7.6-24.7,20.8-24.7,25.4,8.4,28.8,14.2h.1c0,0,1.6-13.5,1.6-13.5-3-1.7-11.2-6.2-23.8-6.2-24.4,0-37.2,18.1-37.2,36h0Z"/>
    </clipPath>
    <linearGradient id="linear-gradient4" x1="-7828.9" y1="-1841.7" x2="-7827.9" y2="-1841.7" gradientTransform="translate(3937622.7 926320.6) scale(502.9)" gradientUnits="userSpaceOnUse">
      <stop offset="0" stop-color="#867160"/>
      <stop offset=".4" stop-color="#ab9378"/>
      <stop offset=".8" stop-color="#c5aa89"/>
      <stop offset="1" stop-color="#cfb390"/>
    </linearGradient>
    <clipPath id="clippath-5">
      <path class="st0" d="M582.9,80.9h-.7s.3-.6.3-.6l13.4-28.5.4.8c1.2,2.1,2.4,4.3,3.3,6.3l10.2,22h-.7c-4,.2-8,.3-12,.3s-9.9,0-14.3-.3M593.5,47.5l.2.2v.2c-.1,0-20.2,40.6-20.2,40.6-2.3,4.7-5.8,10.7-9.2,15.9h9.5c.3-4.6,2.3-10,3-11.2l3.7-8.3h.3c5.5-.2,10.3-.4,14.9-.4s10.8.2,16.2.4h.3l3.1,6.2c2.2,5.4,3.6,9.3,4,13.2h16.6c-4-5.4-6.8-10.7-10-16.8l-.4-.7-16.8-35.3-5.4-10.8h-16.9c3,1.9,5.6,4.2,7.5,6.7h0Z"/>
    </clipPath>
    <linearGradient id="linear-gradient5" x1="-7828.9" y1="-1841.7" x2="-7827.9" y2="-1841.7" gradientTransform="translate(3937631 926326.3) scale(502.9)" gradientUnits="userSpaceOnUse">
      <stop offset="0" stop-color="#867160"/>
      <stop offset=".4" stop-color="#ab9378"/>
      <stop offset=".8" stop-color="#c5aa89"/>
      <stop offset="1" stop-color="#cfb390"/>
    </linearGradient>
    <clipPath id="clippath-6">
      <path class="st0" d="M705.9,40.7c.3,2.4.3,4.1-.8,7.2l-14.3,41.4-12.3-29.2c-2.7-6.5-5.5-13.1-7.1-19.2h-14.3c1.2,1.2,2.2,2.4,3,3.8v.2c0,0,0,.2,0,.2l-9.2,45.8c-.7,3.5-1.9,9.2-3.9,13.9h7.6c-.3-3.3,0-9,.7-12.5l8.1-43,23.1,55.4h3.3l19.5-56.4,1.2,5.8,7.7,38.3c.8,4.1,1.2,8.6,1.1,12.4h14.2c-2.5-7.2-4.1-13.5-5.5-19.1l-4.6-20.1c-.4-2-.7-4-1.1-5.8-1.5-8.2-2.7-14.8-2.5-18.9h-13.8c0,0,0,0,0,0Z"/>
    </clipPath>
    <linearGradient id="linear-gradient6" x1="-7828.9" y1="-1841.7" x2="-7827.9" y2="-1841.7" gradientTransform="translate(3937642.5 926322.3) scale(502.9)" gradientUnits="userSpaceOnUse">
      <stop offset="0" stop-color="#867160"/>
      <stop offset=".4" stop-color="#ab9378"/>
      <stop offset=".8" stop-color="#c5aa89"/>
      <stop offset="1" stop-color="#cfb390"/>
    </linearGradient>
    <clipPath id="clippath-7">
      <path class="st0" d="M747.4,40.8c.5,1.5,1.7,5.8,1.7,15.2v33.3c0,9.4-1.1,13.7-1.7,15.2h13.5c-.5-1.5-1.7-5.8-1.7-15.2v-33.3c0-9.5,1.1-13.8,1.7-15.2h-13.5Z"/>
    </clipPath>
    <linearGradient id="linear-gradient7" x1="-7828.9" y1="-1841.7" x2="-7827.9" y2="-1841.7" gradientTransform="translate(3937650.2 926319.6) scale(502.9)" gradientUnits="userSpaceOnUse">
      <stop offset="0" stop-color="#867160"/>
      <stop offset=".4" stop-color="#ab9378"/>
      <stop offset=".8" stop-color="#c5aa89"/>
      <stop offset="1" stop-color="#cfb390"/>
    </linearGradient>
    <clipPath id="clippath-8">
      <path class="st0" d="M791.6,80.9h-.7s.3-.6.3-.6l13.4-28.5.4.8c1.2,2.1,2.4,4.3,3.3,6.3l10.2,22h-.7c-4,.2-8,.3-12,.3s-9.9,0-14.3-.3M802.2,47.5l.2.2v.2c-.1,0-20.2,40.6-20.2,40.6-2.3,4.7-5.8,10.7-9.2,15.9h9.5c.3-4.6,2.3-10,3-11.2l3.7-8.3h.3c5.5-.2,10.3-.4,14.9-.4s10.8.2,16.2.4h.3l3.1,6.2c2.2,5.4,3.6,9.3,4,13.2h16.6c-4-5.4-6.8-10.8-10.1-16.9l-.3-.6-16.8-35.3-5.4-10.8h-16.9c3,1.9,5.6,4.2,7.5,6.7h0Z"/>
    </clipPath>
    <linearGradient id="linear-gradient8" x1="-7828.9" y1="-1841.7" x2="-7827.9" y2="-1841.7" gradientTransform="translate(3937655 926327.1) scale(502.9)" gradientUnits="userSpaceOnUse">
      <stop offset="0" stop-color="#867160"/>
      <stop offset=".4" stop-color="#ab9378"/>
      <stop offset=".8" stop-color="#c5aa89"/>
      <stop offset="1" stop-color="#cfb390"/>
    </linearGradient>
    <clipPath id="clippath-9">
      <polygon class="st0" points="257.3 131.5 257.3 148.3 244.9 131.5 242.6 131.5 242.6 152.2 244.7 152.2 244.7 135 257.5 152.2 259.5 152.2 259.5 131.5 257.3 131.5"/>
    </clipPath>
    <linearGradient id="linear-gradient9" x1="-7822" y1="-1839.1" x2="-7821" y2="-1839.1" gradientTransform="translate(2650130.3 623195.7) scale(338.8)" gradientUnits="userSpaceOnUse">
      <stop offset="0" stop-color="#867160"/>
      <stop offset=".4" stop-color="#ab9378"/>
      <stop offset=".8" stop-color="#c5aa89"/>
      <stop offset="1" stop-color="#cfb390"/>
    </linearGradient>
    <clipPath id="clippath-10">
      <path class="st0" d="M275.8,149.8c-1-.4-1.9-1-2.7-1.8-.8-.8-1.4-1.7-1.8-2.7-.4-1.1-.6-2.2-.6-3.4s.2-2.4.6-3.4c.4-1,1-1.9,1.8-2.7s1.6-1.4,2.7-1.8c1-.4,2.1-.7,3.3-.7s2.3.2,3.3.7c1,.4,1.9,1,2.6,1.8.8.8,1.4,1.7,1.8,2.7.4,1,.6,2.2.6,3.4s-.2,2.3-.6,3.4c-.4,1-1,2-1.8,2.7-.8.8-1.6,1.4-2.6,1.8-1,.4-2.1.7-3.3.7s-2.3-.2-3.3-.7M274.9,132c-1.3.5-2.4,1.3-3.4,2.3-1,1-1.7,2.1-2.3,3.4-.5,1.3-.8,2.7-.8,4.2s.3,2.9.8,4.2c.5,1.3,1.3,2.4,2.3,3.4,1,1,2.1,1.7,3.4,2.3,1.3.5,2.7.8,4.2.8s2.9-.3,4.2-.8c1.3-.5,2.4-1.3,3.4-2.3s1.7-2.1,2.3-3.4.8-2.7.8-4.2-.3-2.9-.8-4.2c-.5-1.3-1.3-2.4-2.3-3.4s-2.1-1.7-3.4-2.3c-1.3-.6-2.7-.8-4.2-.8s-2.9.3-4.2.8Z"/>
    </clipPath>
    <linearGradient id="linear-gradient10" x1="-7822" y1="-1839.1" x2="-7821" y2="-1839.1" gradientTransform="translate(2650133.2 623196.1) scale(338.8)" gradientUnits="userSpaceOnUse">
      <stop offset="0" stop-color="#867160"/>
      <stop offset=".4" stop-color="#ab9378"/>
      <stop offset=".8" stop-color="#c5aa89"/>
      <stop offset="1" stop-color="#cfb390"/>
    </linearGradient>
    <clipPath id="clippath-11">
      <polygon class="st0" points="295.4 131.5 295.4 133.5 302.9 133.5 302.9 152.2 305.2 152.2 305.2 133.5 312.7 133.5 312.7 131.5 295.4 131.5"/>
    </clipPath>
    <linearGradient id="linear-gradient11" x1="-7822" y1="-1839.1" x2="-7821" y2="-1839.1" gradientTransform="translate(2650136.2 623194.6) scale(338.8)" gradientUnits="userSpaceOnUse">
      <stop offset="0" stop-color="#867160"/>
      <stop offset=".4" stop-color="#ab9378"/>
      <stop offset=".8" stop-color="#c5aa89"/>
      <stop offset="1" stop-color="#cfb390"/>
    </linearGradient>
    <clipPath id="clippath-12">
      <polygon class="st0" points="332.5 131.5 332.5 152.2 334.8 152.2 334.8 142.9 343 142.9 343 140.9 334.8 140.9 334.8 133.5 347.3 133.5 347.3 131.5 332.5 131.5"/>
    </clipPath>
    <linearGradient id="linear-gradient12" x1="-7822" y1="-1839.1" x2="-7821" y2="-1839.1" gradientTransform="translate(2650142.5 623190.2) scale(338.8)" gradientUnits="userSpaceOnUse">
      <stop offset="0" stop-color="#867160"/>
      <stop offset=".4" stop-color="#ab9378"/>
      <stop offset=".8" stop-color="#c5aa89"/>
      <stop offset="1" stop-color="#cfb390"/>
    </linearGradient>
    <clipPath id="clippath-13">
      <path class="st0" d="M360.9,149.8c-1-.4-1.9-1-2.7-1.8-.8-.8-1.4-1.7-1.8-2.7-.4-1.1-.6-2.2-.6-3.4s.2-2.4.6-3.4c.4-1,1-1.9,1.8-2.7s1.6-1.4,2.7-1.8c1-.4,2.1-.7,3.3-.7s2.3.2,3.3.7c1,.4,1.9,1,2.6,1.8.8.8,1.4,1.7,1.8,2.7.4,1,.6,2.2.6,3.4s-.2,2.3-.6,3.4c-.4,1-1,2-1.8,2.7-.8.8-1.6,1.4-2.6,1.8-1,.4-2.1.7-3.3.7s-2.3-.2-3.3-.7M360,132c-1.3.5-2.4,1.3-3.4,2.3-1,1-1.7,2.1-2.3,3.4-.5,1.3-.8,2.7-.8,4.2s.3,2.9.8,4.2c.5,1.3,1.3,2.4,2.3,3.4,1,1,2.1,1.7,3.4,2.3,1.3.5,2.7.8,4.2.8s2.9-.3,4.2-.8c1.3-.5,2.4-1.3,3.4-2.3,1-1,1.7-2.1,2.3-3.4s.8-2.7.8-4.2-.3-2.9-.8-4.2c-.5-1.3-1.3-2.4-2.3-3.4-1-1-2.1-1.7-3.4-2.3-1.3-.6-2.7-.8-4.2-.8s-2.9.3-4.2.8Z"/>
    </clipPath>
    <linearGradient id="linear-gradient13" x1="-7822" y1="-1839.1" x2="-7821" y2="-1839.1" gradientTransform="translate(2650144.8 623194.2) scale(338.8)" gradientUnits="userSpaceOnUse">
      <stop offset="0" stop-color="#867160"/>
      <stop offset=".4" stop-color="#ab9378"/>
      <stop offset=".8" stop-color="#c5aa89"/>
      <stop offset="1" stop-color="#cfb390"/>
    </linearGradient>
    <clipPath id="clippath-14">
      <path class="st0" d="M386,133.5h6.5c1.4,0,2.5.4,3.4,1.1.8.7,1.3,1.7,1.3,2.8s-.4,2.2-1.3,2.9-2,1.1-3.4,1.1h-6.5v-7.9ZM383.8,131.5v20.7h2.3v-8.9h6.6l4.4,8.9h2.5l-4.6-9.2c1.3-.4,2.4-1.1,3.2-2.1s1.2-2.1,1.2-3.5-.3-2.2-.8-3.1c-.6-.9-1.4-1.6-2.4-2.1-1-.5-2.2-.7-3.6-.7h-8.9,0Z"/>
    </clipPath>
    <linearGradient id="linear-gradient14" x1="-7822" y1="-1839.1" x2="-7821" y2="-1839.1" gradientTransform="translate(2650148.8 623193.1) scale(338.8)" gradientUnits="userSpaceOnUse">
      <stop offset="0" stop-color="#867160"/>
      <stop offset=".4" stop-color="#ab9378"/>
      <stop offset=".8" stop-color="#c5aa89"/>
      <stop offset="1" stop-color="#cfb390"/>
    </linearGradient>
    <clipPath id="clippath-15">
      <polygon class="st0" points="419.9 131.5 419.9 152.2 434.8 152.2 434.8 150.2 422.2 150.2 422.2 142.8 430.4 142.8 430.4 140.8 422.2 140.8 422.2 133.5 434.7 133.5 434.7 131.5 419.9 131.5"/>
    </clipPath>
    <linearGradient id="linear-gradient15" x1="-7822" y1="-1839.1" x2="-7821" y2="-1839.1" gradientTransform="translate(2650151.2 623195.8) scale(338.8)" gradientUnits="userSpaceOnUse">
      <stop offset="0" stop-color="#867160"/>
      <stop offset=".4" stop-color="#ab9378"/>
      <stop offset=".8" stop-color="#c5aa89"/>
      <stop offset="1" stop-color="#cfb390"/>
    </linearGradient>
    <clipPath id="clippath-16">
      <polygon class="st0" points="459.1 131.5 451.5 150.1 444 131.5 441.6 131.5 450.1 152.2 452.9 152.2 461.5 131.5 459.1 131.5"/>
    </clipPath>
    <linearGradient id="linear-gradient16" x1="-7822" y1="-1839.1" x2="-7821" y2="-1839.1" gradientTransform="translate(2650155.5 623191.9) scale(338.8)" gradientUnits="userSpaceOnUse">
      <stop offset="0" stop-color="#867160"/>
      <stop offset=".4" stop-color="#ab9378"/>
      <stop offset=".8" stop-color="#c5aa89"/>
      <stop offset="1" stop-color="#cfb390"/>
    </linearGradient>
    <clipPath id="clippath-17">
      <polygon class="st0" points="469.2 131.5 469.2 152.2 484.1 152.2 484.1 150.2 471.5 150.2 471.5 142.8 479.7 142.8 479.7 140.8 471.5 140.8 471.5 133.5 484 133.5 484 131.5 469.2 131.5"/>
    </clipPath>
    <linearGradient id="linear-gradient17" x1="-7822" y1="-1839.1" x2="-7821" y2="-1839.1" gradientTransform="translate(2650157.3 623195.7) scale(338.8)" gradientUnits="userSpaceOnUse">
      <stop offset="0" stop-color="#867160"/>
      <stop offset=".4" stop-color="#ab9378"/>
      <stop offset=".8" stop-color="#c5aa89"/>
      <stop offset="1" stop-color="#cfb390"/>
    </linearGradient>
    <clipPath id="clippath-18">
      <path class="st0" d="M495,133.5h6.5c1.4,0,2.5.4,3.4,1.1.8.7,1.3,1.7,1.3,2.8s-.4,2.2-1.3,2.9-2,1.1-3.4,1.1h-6.5v-7.9ZM492.8,131.5v20.7h2.3v-8.9h6.6l4.4,8.9h2.5l-4.6-9.2c1.3-.4,2.4-1.1,3.2-2.1s1.2-2.1,1.2-3.5-.3-2.2-.8-3.1c-.6-.9-1.4-1.6-2.4-2.1-1-.5-2.2-.7-3.5-.7h-8.9Z"/>
    </clipPath>
    <linearGradient id="linear-gradient18" x1="-7822" y1="-1839.1" x2="-7821" y2="-1839.1" gradientTransform="translate(2650162 623193.1) scale(338.8)" gradientUnits="userSpaceOnUse">
      <stop offset="0" stop-color="#867160"/>
      <stop offset=".4" stop-color="#ab9378"/>
      <stop offset=".8" stop-color="#c5aa89"/>
      <stop offset="1" stop-color="#cfb390"/>
    </linearGradient>
    <clipPath id="clippath-19">
      <polygon class="st0" points="530.2 131.5 523.4 141.8 516.6 131.5 514 131.5 522.2 143.8 522.2 152.2 524.5 152.2 524.5 143.9 532.7 131.5 530.2 131.5"/>
    </clipPath>
    <linearGradient id="linear-gradient19" x1="-7822" y1="-1839.1" x2="-7821" y2="-1839.1" gradientTransform="translate(2650166 623189.3) scale(338.8)" gradientUnits="userSpaceOnUse">
      <stop offset="0" stop-color="#867160"/>
      <stop offset=".4" stop-color="#ab9378"/>
      <stop offset=".8" stop-color="#c5aa89"/>
      <stop offset="1" stop-color="#cfb390"/>
    </linearGradient>
    <clipPath id="clippath-20">
      <path class="st0" d="M542.7,142.4h6.3c1.5,0,2.7.3,3.6,1.1.9.7,1.3,1.7,1.3,2.8s-.5,2.1-1.3,2.8c-.9.7-2.1,1.1-3.6,1.1h-6.3v-7.8ZM542.7,133.5h6c1.3,0,2.4.3,3.2,1,.8.6,1.2,1.5,1.2,2.6s-.4,2-1.2,2.6c-.8.6-1.9,1-3.2,1h-6v-7h0ZM540.4,131.5v20.7h8.8c1.4,0,2.7-.2,3.7-.7s1.9-1.1,2.5-2c.6-.9.9-1.9.9-3.1s-.4-2.2-1.1-3.1c-.7-.9-1.7-1.5-3-1.9,1-.4,1.8-1,2.3-1.8.6-.8.8-1.7.8-2.8s-.3-2-.8-2.8c-.5-.8-1.3-1.4-2.3-1.8-1-.4-2.1-.7-3.5-.7h-8.4Z"/>
    </clipPath>
    <linearGradient id="linear-gradient20" x1="-7822" y1="-1839.1" x2="-7821" y2="-1839.1" gradientTransform="translate(2650164.3 623197.2) scale(338.8)" gradientUnits="userSpaceOnUse">
      <stop offset="0" stop-color="#867160"/>
      <stop offset=".4" stop-color="#ab9378"/>
      <stop offset=".8" stop-color="#c5aa89"/>
      <stop offset="1" stop-color="#cfb390"/>
    </linearGradient>
    <clipPath id="clippath-21">
      <path class="st0" d="M571.3,149.8c-1-.4-1.9-1-2.7-1.8-.8-.8-1.3-1.7-1.8-2.7-.4-1.1-.6-2.2-.6-3.4s.2-2.4.6-3.4c.4-1,1-1.9,1.8-2.7s1.7-1.4,2.7-1.8c1-.4,2.1-.7,3.3-.7s2.3.2,3.3.7c1,.4,1.9,1,2.7,1.8.8.8,1.3,1.7,1.8,2.7.4,1,.6,2.2.6,3.4s-.2,2.3-.6,3.4c-.4,1-1,2-1.8,2.7-.8.8-1.7,1.4-2.7,1.8-1,.4-2.1.7-3.3.7s-2.3-.2-3.3-.7M570.4,132c-1.3.5-2.4,1.3-3.4,2.3-1,1-1.7,2.1-2.3,3.4-.5,1.3-.8,2.7-.8,4.2s.3,2.9.8,4.2c.5,1.3,1.3,2.4,2.3,3.4,1,1,2.1,1.7,3.4,2.3,1.3.5,2.7.8,4.2.8s2.9-.3,4.2-.8c1.3-.5,2.4-1.3,3.4-2.3,1-1,1.7-2.1,2.3-3.4.5-1.3.8-2.7.8-4.2s-.3-2.9-.8-4.2c-.5-1.3-1.3-2.4-2.3-3.4-1-1-2.1-1.7-3.4-2.3-1.3-.6-2.7-.8-4.2-.8s-2.9.3-4.2.8Z"/>
    </clipPath>
    <linearGradient id="linear-gradient21" x1="-7822" y1="-1839.1" x2="-7821" y2="-1839.1" gradientTransform="translate(2650170.3 623194.2) scale(338.8)" gradientUnits="userSpaceOnUse">
      <stop offset="0" stop-color="#867160"/>
      <stop offset=".4" stop-color="#ab9378"/>
      <stop offset=".8" stop-color="#c5aa89"/>
      <stop offset="1" stop-color="#cfb390"/>
    </linearGradient>
    <clipPath id="clippath-22">
      <path class="st0" d="M596.5,133.6h4.7c1.2,0,2.3.2,3.3.6,1,.4,1.9,1,2.7,1.7.8.8,1.4,1.6,1.8,2.6.4,1,.6,2.1.6,3.3s-.2,2.3-.6,3.3c-.4,1-1,1.9-1.8,2.6-.8.8-1.7,1.3-2.7,1.8-1,.4-2.1.6-3.3.6h-4.7v-16.6h0ZM594.2,131.5v20.7h6.8c1.6,0,3-.3,4.4-.8,1.3-.5,2.5-1.2,3.5-2.2,1-.9,1.7-2,2.3-3.3.5-1.3.8-2.6.8-4.1s-.3-2.9-.8-4.1c-.5-1.3-1.3-2.4-2.3-3.3-1-.9-2.1-1.6-3.5-2.2s-2.8-.8-4.3-.8h-6.8Z"/>
    </clipPath>
    <linearGradient id="linear-gradient22" x1="-7822" y1="-1839.1" x2="-7821" y2="-1839.1" gradientTransform="translate(2650174 623191.7) scale(338.8)" gradientUnits="userSpaceOnUse">
      <stop offset="0" stop-color="#867160"/>
      <stop offset=".4" stop-color="#ab9378"/>
      <stop offset=".8" stop-color="#c5aa89"/>
      <stop offset="1" stop-color="#cfb390"/>
    </linearGradient>
    <clipPath id="clippath-23">
      <polygon class="st0" points="632.9 131.5 626.2 141.8 619.4 131.5 616.7 131.5 625 143.8 625 152.2 627.2 152.2 627.2 143.9 635.5 131.5 632.9 131.5"/>
    </clipPath>
    <linearGradient id="linear-gradient23" x1="-7822" y1="-1839.1" x2="-7821" y2="-1839.1" gradientTransform="translate(2650176.8 623191.7) scale(338.8)" gradientUnits="userSpaceOnUse">
      <stop offset="0" stop-color="#867160"/>
      <stop offset=".4" stop-color="#ab9378"/>
      <stop offset=".8" stop-color="#c5aa89"/>
      <stop offset="1" stop-color="#cfb390"/>
    </linearGradient>
    <clipPath id="clippath-24">
      <polygon class="st0" points="33.2 99.6 63.1 126.3 63.1 86.2 33.3 59.6 33.2 99.6"/>
    </clipPath>
    <linearGradient id="linear-gradient24" x1="-7809.7" y1="-1823.8" x2="-7808.7" y2="-1823.8" gradientTransform="translate(1470144.7 343414) scale(188.3)" gradientUnits="userSpaceOnUse">
      <stop offset="0" stop-color="#867160"/>
      <stop offset=".4" stop-color="#ab9378"/>
      <stop offset=".8" stop-color="#c5aa89"/>
      <stop offset="1" stop-color="#cfb390"/>
    </linearGradient>
    <clipPath id="clippath-25">
      <polygon class="st0" points="55.3 58.5 74.4 75.5 74.4 49.9 55.3 32.9 55.3 58.5"/>
    </clipPath>
    <linearGradient id="linear-gradient25" x1="-7809.7" y1="-1823.7" x2="-7808.7" y2="-1823.7" gradientTransform="translate(1470123.1 343374.8) scale(188.3)" gradientUnits="userSpaceOnUse">
      <stop offset="0" stop-color="#867160"/>
      <stop offset=".4" stop-color="#ab9378"/>
      <stop offset=".8" stop-color="#c5aa89"/>
      <stop offset="1" stop-color="#cfb390"/>
    </linearGradient>
    <clipPath id="clippath-26">
      <polygon class="st0" points="164.2 86.2 164.2 126.3 194.1 99.6 194 59.6 164.2 86.2"/>
    </clipPath>
    <linearGradient id="linear-gradient26" x1="-7809.7" y1="-1823.8" x2="-7808.7" y2="-1823.8" gradientTransform="translate(1470179.6 343413.9) scale(188.3)" gradientUnits="userSpaceOnUse">
      <stop offset="0" stop-color="#867160"/>
      <stop offset=".4" stop-color="#ab9378"/>
      <stop offset=".8" stop-color="#c5aa89"/>
      <stop offset="1" stop-color="#cfb390"/>
    </linearGradient>
    <clipPath id="clippath-27">
      <polygon class="st0" points="152.9 49.9 152.9 75.5 172 58.5 172 32.9 152.9 49.9"/>
    </clipPath>
    <linearGradient id="linear-gradient27" x1="-7809.7" y1="-1823.7" x2="-7808.7" y2="-1823.7" gradientTransform="translate(1470149.1 343374.8) scale(188.3)" gradientUnits="userSpaceOnUse">
      <stop offset="0" stop-color="#867160"/>
      <stop offset=".4" stop-color="#ab9378"/>
      <stop offset=".8" stop-color="#c5aa89"/>
      <stop offset="1" stop-color="#cfb390"/>
    </linearGradient>
    <clipPath id="clippath-28">
      <polygon class="st0" points="113.7 141.6 63.1 126.3 63.1 148.8 113.7 164.5 164.2 148.8 164.2 126.3 113.7 141.6"/>
    </clipPath>
    <linearGradient id="linear-gradient28" x1="-7809.7" y1="-1823.7" x2="-7808.7" y2="-1823.7" gradientTransform="translate(1470197.7 343460.8) scale(188.3)" gradientUnits="userSpaceOnUse">
      <stop offset="0" stop-color="#867160"/>
      <stop offset=".4" stop-color="#ab9378"/>
      <stop offset=".8" stop-color="#c5aa89"/>
      <stop offset="1" stop-color="#cfb390"/>
    </linearGradient>
    <clipPath id="clippath-29">
      <path class="st0" d="M87.2,85s23.9,2.5,24,33.9h5.1c0-31.4,23.9-33.9,23.9-33.9l-26.5-58.6-26.5,58.6Z"/>
    </clipPath>
    <linearGradient id="linear-gradient29" x1="-7809.7" y1="-1823.8" x2="-7808.7" y2="-1823.8" gradientTransform="translate(1470148.5 343394.5) scale(188.3)" gradientUnits="userSpaceOnUse">
      <stop offset="0" stop-color="#867160"/>
      <stop offset=".4" stop-color="#ab9378"/>
      <stop offset=".8" stop-color="#c5aa89"/>
      <stop offset="1" stop-color="#cfb390"/>
    </linearGradient>
    <clipPath id="clippath-30">
      <path class="st0" d="M848.1,62.5c-6,0-10.9-4.9-10.9-10.9s4.9-10.9,10.9-10.9,10.9,4.9,10.9,10.9-4.9,10.9-10.9,10.9ZM848.1,43c-4.8,0-8.7,3.9-8.7,8.7s3.9,8.7,8.7,8.7,8.7-3.9,8.7-8.7-3.9-8.7-8.7-8.7ZM847.5,50.8c.6,0,1-.1,1.3-.4.3-.2.4-.6.4-1.1s-.1-.9-.4-1.1c-.3-.2-.7-.3-1.3-.3h-1.2v2.9h1.2M846.3,52.8v4.3h-2.9v-11.4h4.5c1.5,0,2.6.3,3.3.8.7.5,1,1.3,1,2.4s-.2,1.4-.5,1.9c-.4.5-.9.8-1.6,1.1.4,0,.8.3,1.1.6.3.3.6.8,1,1.5l1.6,3.2h-3.1l-1.4-2.8c-.3-.6-.6-1-.9-1.2-.3-.2-.7-.3-1.1-.3h-.8"/>
    </clipPath>
    <linearGradient id="linear-gradient30" x1="-7828.8" y1="-1841.7" x2="-7827.8" y2="-1841.7" gradientTransform="translate(3937648 926306.1) scale(502.9)" xlink:href="#linear-gradient"/>
  </defs>
  <g id="Layer_1-2">
    <g>
      <g class="st62">
        <rect class="st31" x="230.8" y="31.6" width="78.5" height="82.1" transform="translate(-2.4 135.6) rotate(-28.1)"/>
      </g>
      <g class="st53">
        <rect class="st2" x="298.2" y="26.8" width="93.9" height="91.7" transform="translate(6.4 170.9) rotate(-28.1)"/>
      </g>
      <g class="st56">
        <rect class="st1" x="384" y="32.4" width="75.7" height="80.8" transform="translate(15.3 207) rotate(-28.1)"/>
      </g>
      <g class="st54">
        <rect class="st4" x="446.8" y="41.4" width="41.9" height="62.6" transform="translate(20.8 228.6) rotate(-28.1)"/>
      </g>
      <g class="st55">
        <rect class="st9" x="477.7" y="27" width="90" height="90.7" transform="translate(27.4 254.4) rotate(-28.1)"/>
      </g>
      <g class="st61">
        <rect class="st8" x="553.4" y="27.8" width="92.9" height="89.8" transform="translate(36.3 290.7) rotate(-28.1)"/>
      </g>
      <g class="st58">
        <rect class="st5" x="637.1" y="24.1" width="106.3" height="97" transform="translate(47 333.2) rotate(-28.1)"/>
      </g>
      <g class="st57">
        <rect class="st7" x="733.2" y="41.4" width="41.9" height="62.6" transform="translate(54.5 363.3) rotate(-28.1)"/>
      </g>
      <g class="st60">
        <rect class="st6" x="762.1" y="27.8" width="92.9" height="89.8" transform="translate(60.9 388.9) rotate(-28.1)"/>
      </g>
      <g class="st59">
        <rect class="st3" x="238.7" y="128.7" width="24.7" height="26.3" transform="translate(-37.3 136.5) rotate(-28.4)"/>
      </g>
      <g class="st37">
        <rect class="st19" x="264.6" y="127.4" width="29" height="29" transform="translate(-33.9 149.8) rotate(-28.4)"/>
      </g>
      <g class="st34">
        <rect class="st18" x="291.5" y="128.7" width="25" height="26.4" transform="translate(-30.9 161.7) rotate(-28.4)"/>
      </g>
      <g class="st41">
        <rect class="st15" x="328.5" y="129.2" width="22.9" height="25.3" transform="translate(-26.6 178.7) rotate(-28.4)"/>
      </g>
      <g class="st39">
        <rect class="st14" x="349.7" y="127.4" width="29" height="29" transform="translate(-23.7 190.3) rotate(-28.4)"/>
      </g>
      <g class="st40">
        <rect class="st21" x="379.8" y="129" width="23.8" height="25.8" transform="translate(-20.3 203.4) rotate(-28.4)"/>
      </g>
      <g class="st38">
        <rect class="st16" x="415.9" y="129.2" width="23" height="25.4" transform="translate(-16.1 220.3) rotate(-28.4)"/>
      </g>
      <g class="st35">
        <rect class="st17" x="437.9" y="128" width="27.3" height="27.7" transform="translate(-13.1 231.8) rotate(-28.4)"/>
      </g>
      <g class="st32">
        <rect class="st20" x="465.2" y="129.2" width="23" height="25.4" transform="translate(-10.1 243.8) rotate(-28.4)"/>
      </g>
      <g class="st36">
        <rect class="st13" x="488.8" y="129" width="23.8" height="25.8" transform="translate(-7.2 255.2) rotate(-28.4)"/>
      </g>
      <g class="st33">
        <rect class="st22" x="510.2" y="128.3" width="26.4" height="27.2" transform="translate(-4.5 266) rotate(-28.4)"/>
      </g>
      <g class="st47">
        <rect class="st28" x="536.4" y="129" width="23.8" height="25.8" transform="translate(-1.5 277.9) rotate(-28.4)"/>
      </g>
      <g class="st48">
        <rect class="st27" x="560.1" y="127.4" width="29" height="29" transform="translate(1.7 290.4) rotate(-28.4)"/>
      </g>
      <g class="st49">
        <rect class="st24" x="590.3" y="128.6" width="25.5" height="26.7" transform="translate(5.1 303.9) rotate(-28.4)"/>
      </g>
      <g class="st50">
        <rect class="st23" x="612.9" y="128.3" width="26.4" height="27.2" transform="translate(7.9 314.9) rotate(-28.4)"/>
      </g>
      <g class="st51">
        <rect class="st25" x="14.6" y="58.3" width="67.2" height="69.2" transform="translate(-50.3 57.5) rotate(-42.8)"/>
      </g>
      <g class="st52">
        <rect class="st26" x="43.4" y="32.1" width="42.9" height="44.2" transform="translate(-19.5 58.5) rotate(-42.8)"/>
      </g>
      <g class="st45">
        <rect class="st30" x="145.5" y="58.3" width="67.2" height="69.2" transform="translate(-15.4 146.4) rotate(-42.8)"/>
      </g>
      <g class="st43">
        <rect class="st29" x="141" y="32.1" width="42.9" height="44.2" transform="translate(6.4 124.8) rotate(-42.8)"/>
      </g>
      <g class="st46">
        <rect class="st11" x="63.6" y="97" width="100.2" height="96.7" transform="translate(-68.5 115.9) rotate(-42.8)"/>
      </g>
      <g class="st44">
        <rect class="st12" x="62.8" y="20.7" width="101.7" height="103.8" transform="translate(-19.1 96.6) rotate(-42.8)"/>
      </g>
    </g>
  </g>
  <g class="st42">
    <rect class="st10" x="800.7" y="3.3" width="92.9" height="89.8" transform="translate(76.9 404.2) rotate(-28.1)"/>
  </g>
</svg>