<?xml version="1.0" encoding="UTF-8"?>
<svg id="Layer_2" xmlns="http://www.w3.org/2000/svg" version="1.1" viewBox="0 0 870.7 214.9">
  <!-- Generator: Adobe Illustrator 30.0.0, SVG Export Plug-In . SVG Version: 2.1.1 Build 123)  -->
  <defs>
    <style>
      .st0 {
        fill: #383838;
      }
    </style>
  </defs>
  <path class="st0" d="M255.4,70.6h-.3v-26.1h.4c2.8-.6,7.5-.9,12.6-.9,11,0,18.1,6.3,18.1,16s-6.2,13.3-17.5,13.3-9.8-1.1-13.2-2.3M243,40.8c.6,1.5,1.9,5.8,1.9,15.3l-.4,33.3c0,9.4-1.3,13.6-1.9,15.1h14.8c-.7-1.5-2.1-5.8-2.1-15.1v-14c-.1,0,.4,0,.4,0,3.9.5,8.4.9,13.1.9,19.8,0,28.9-9.7,28.9-18.7s-8.2-16.9-24.4-16.9h-30.2,0Z"/>
  <path class="st0" d="M327.8,90.3c-4.6-5.7-7.1-13.3-7.1-21.4,0-15,8.1-24.4,21.2-24.4s27.8,13.5,27.8,31.5-8.4,24-21,24-15.8-3.4-20.9-9.7M309.5,74.8c0,17.5,14.7,30.8,34.2,30.8s37.1-15.3,37.1-34.9-14.1-30.9-33.5-30.9-37.8,15.4-37.8,35.1h0Z"/>
  <path class="st0" d="M396,40.8c.5,1.5,1.6,5.8,1.6,15.2v33.3c0,9.4-1.1,13.7-1.7,15.2l47.6.4,4-15.2h-.2c-8.8,9.2-24.1,10.6-37,10.6h-1.7v-.4c-.5-2.7-.7-6.5-.7-10.6v-33.3c0-9.5,1.1-13.8,1.7-15.2h-13.7,0Z"/>
  <path class="st0" d="M461,40.8c.5,1.5,1.7,5.8,1.7,15.2v33.3c0,9.4-1.1,13.7-1.7,15.2h13.5c-.5-1.5-1.7-5.8-1.7-15.2v-33.3c0-9.5,1.1-13.8,1.7-15.2h-13.5Z"/>
  <path class="st0" d="M489.7,74.6c0,17.7,14.8,31.6,33.8,31.6s25.1-8.4,29.5-12.4c.7-.7,1.3-1.2,1.8-1.6v-2c0-5.5,0-11.2.8-14.7h-12.5c2,4.2,2,10.6,2,18.6v.2h-.2c-3.8,3.4-9.6,5.2-15.8,5.2-16.8,0-29.9-13.5-29.9-30.7s7.6-24.7,20.8-24.7,25.4,8.4,28.8,14.2h.1c0,0,1.6-13.5,1.6-13.5-3-1.7-11.2-6.2-23.8-6.2-24.4,0-37.2,18.1-37.2,36h0Z"/>
  <path class="st0" d="M582.9,80.9h-.7s.3-.6.3-.6l13.4-28.5.4.8c1.2,2.1,2.4,4.3,3.3,6.3l10.2,22h-.7c-4,.2-8,.3-12,.3s-9.9,0-14.3-.3M593.5,47.5l.2.2v.2c-.1,0-20.2,40.6-20.2,40.6-2.3,4.7-5.8,10.7-9.2,15.9h9.5c.3-4.6,2.3-10,3-11.1l3.7-8.3h.3c5.5-.2,10.3-.4,14.9-.4s10.8.2,16.2.4h.3l3.1,6.2c2.2,5.4,3.6,9.3,4,13.2h16.6c-4-5.4-6.8-10.7-10-16.8l-.4-.7-16.8-35.3-5.4-10.8h-16.9c3,1.9,5.6,4.2,7.5,6.7h0Z"/>
  <path class="st0" d="M705.9,40.7c.3,2.4.3,4.1-.8,7.2l-14.3,41.4-12.3-29.2c-2.7-6.5-5.5-13.1-7.1-19.2h-14.3c1.2,1.2,2.2,2.4,3,3.8h0c0,.1,0,.3,0,.3l-9.2,45.8c-.7,3.5-1.9,9.2-3.9,13.9h7.6c-.3-3.3,0-9,.7-12.5l8.1-43,23.1,55.4h3.3l19.5-56.4,1.2,5.8,7.7,38.3c.8,4.1,1.2,8.6,1.1,12.4h14.2c-2.5-7.2-4.1-13.5-5.5-19.1l-4.6-20.1c-.4-2-.7-4-1.1-5.8-1.5-8.2-2.7-14.8-2.5-18.9h-13.8c0,0,0,0,0,0Z"/>
  <path class="st0" d="M747.4,40.8c.5,1.5,1.7,5.8,1.7,15.2v33.3c0,9.4-1.1,13.7-1.7,15.2h13.5c-.5-1.5-1.7-5.8-1.7-15.2v-33.3c0-9.5,1.1-13.8,1.7-15.2h-13.5Z"/>
  <path class="st0" d="M791.6,80.9h-.7s.3-.6.3-.6l13.4-28.5.4.8c1.2,2.1,2.4,4.3,3.3,6.3l10.2,22h-.7c-4,.2-8,.3-12,.3s-9.9,0-14.3-.3M802.2,47.5l.2.2v.2c-.1,0-20.2,40.6-20.2,40.6-2.3,4.7-5.8,10.7-9.2,15.9h9.5c.3-4.6,2.3-10,3-11.1l3.7-8.3h.3c5.5-.2,10.3-.4,14.9-.4s10.8.2,16.2.4h.3l3.1,6.2c2.2,5.4,3.6,9.3,4,13.2h16.6c-4-5.4-6.8-10.8-10.1-16.9l-.3-.6-16.8-35.3-5.4-10.8h-16.9c3,1.9,5.6,4.2,7.5,6.7h0Z"/>
  <polygon class="st0" points="257.3 131.5 257.3 148.3 244.9 131.5 242.6 131.5 242.6 152.2 244.7 152.2 244.7 135 257.5 152.2 259.5 152.2 259.5 131.5 257.3 131.5"/>
  <path class="st0" d="M275.8,149.8c-1-.4-1.9-1-2.7-1.8-.8-.8-1.4-1.7-1.8-2.7-.4-1-.6-2.2-.6-3.4s.2-2.4.6-3.4c.4-1,1-1.9,1.8-2.7.8-.8,1.6-1.4,2.7-1.8,1-.4,2.1-.7,3.3-.7s2.3.2,3.3.7,1.9,1,2.6,1.8c.8.8,1.4,1.7,1.8,2.7.4,1,.6,2.2.6,3.4s-.2,2.3-.6,3.4c-.4,1-1,2-1.8,2.7-.8.8-1.6,1.4-2.6,1.8-1,.4-2.1.7-3.3.7s-2.3-.2-3.3-.7M274.9,132c-1.3.5-2.4,1.3-3.4,2.3-1,1-1.7,2.1-2.3,3.4-.5,1.3-.8,2.7-.8,4.2s.3,2.9.8,4.2c.5,1.3,1.3,2.4,2.3,3.4,1,1,2.1,1.7,3.4,2.3,1.3.5,2.7.8,4.2.8s2.9-.3,4.2-.8c1.3-.5,2.4-1.3,3.4-2.3,1-1,1.7-2.1,2.3-3.4.5-1.3.8-2.7.8-4.2s-.3-2.9-.8-4.2c-.5-1.3-1.3-2.4-2.3-3.4-1-1-2.1-1.7-3.4-2.3-1.3-.5-2.7-.8-4.2-.8s-2.9.3-4.2.8Z"/>
  <polygon class="st0" points="295.4 131.5 295.4 133.5 302.9 133.5 302.9 152.2 305.2 152.2 305.2 133.5 312.7 133.5 312.7 131.5 295.4 131.5"/>
  <polygon class="st0" points="332.5 131.5 332.5 152.2 334.8 152.2 334.8 142.9 343 142.9 343 140.9 334.8 140.9 334.8 133.5 347.3 133.5 347.3 131.5 332.5 131.5"/>
  <path class="st0" d="M360.9,149.8c-1-.4-1.9-1-2.7-1.8-.8-.8-1.4-1.7-1.8-2.7-.4-1-.6-2.2-.6-3.4s.2-2.4.6-3.4c.4-1,1-1.9,1.8-2.7.8-.8,1.6-1.4,2.7-1.8,1-.4,2.1-.7,3.3-.7s2.3.2,3.3.7,1.9,1,2.6,1.8c.8.8,1.4,1.7,1.8,2.7.4,1,.6,2.2.6,3.4s-.2,2.3-.6,3.4c-.4,1-1,2-1.8,2.7-.8.8-1.6,1.4-2.6,1.8-1,.4-2.1.7-3.3.7s-2.3-.2-3.3-.7M360,132c-1.3.5-2.4,1.3-3.4,2.3-1,1-1.7,2.1-2.3,3.4-.5,1.3-.8,2.7-.8,4.2s.3,2.9.8,4.2c.5,1.3,1.3,2.4,2.3,3.4,1,1,2.1,1.7,3.4,2.3,1.3.5,2.7.8,4.2.8s2.9-.3,4.2-.8c1.3-.5,2.4-1.3,3.4-2.3s1.7-2.1,2.3-3.4c.5-1.3.8-2.7.8-4.2s-.3-2.9-.8-4.2c-.5-1.3-1.3-2.4-2.3-3.4-1-1-2.1-1.7-3.4-2.3-1.3-.5-2.7-.8-4.2-.8s-2.9.3-4.2.8Z"/>
  <path class="st0" d="M386,133.5h6.5c1.4,0,2.5.4,3.4,1.1.8.7,1.3,1.7,1.3,2.8s-.4,2.2-1.3,2.9c-.8.7-2,1.1-3.4,1.1h-6.5v-7.9ZM383.8,131.5v20.7h2.3v-8.9h6.6l4.4,8.9h2.5l-4.6-9.2c1.3-.4,2.4-1.1,3.2-2.1s1.2-2.1,1.2-3.5-.3-2.2-.8-3.1c-.6-.9-1.4-1.6-2.4-2.1-1-.5-2.2-.7-3.6-.7h-8.9,0Z"/>
  <polygon class="st0" points="419.9 131.5 419.9 152.2 434.8 152.2 434.8 150.2 422.2 150.2 422.2 142.8 430.4 142.8 430.4 140.8 422.2 140.8 422.2 133.5 434.7 133.5 434.7 131.5 419.9 131.5"/>
  <polygon class="st0" points="459.1 131.5 451.5 150.1 444 131.5 441.6 131.5 450.1 152.2 452.9 152.2 461.5 131.5 459.1 131.5"/>
  <polygon class="st0" points="469.2 131.5 469.2 152.2 484.1 152.2 484.1 150.2 471.5 150.2 471.5 142.8 479.7 142.8 479.7 140.8 471.5 140.8 471.5 133.5 484 133.5 484 131.5 469.2 131.5"/>
  <path class="st0" d="M495,133.5h6.5c1.4,0,2.5.4,3.4,1.1.8.7,1.3,1.7,1.3,2.8s-.4,2.2-1.3,2.9c-.8.7-2,1.1-3.4,1.1h-6.5v-7.9ZM492.8,131.5v20.7h2.3v-8.9h6.6l4.4,8.9h2.5l-4.6-9.2c1.3-.4,2.4-1.1,3.2-2.1s1.2-2.1,1.2-3.5-.3-2.2-.8-3.1c-.6-.9-1.4-1.6-2.4-2.1-1-.5-2.2-.7-3.5-.7h-8.9Z"/>
  <polygon class="st0" points="530.2 131.5 523.4 141.8 516.6 131.5 514 131.5 522.2 143.8 522.2 152.2 524.5 152.2 524.5 143.9 532.7 131.5 530.2 131.5"/>
  <path class="st0" d="M542.7,142.4h6.3c1.5,0,2.7.4,3.6,1.1.9.7,1.3,1.7,1.3,2.8s-.5,2.1-1.3,2.8c-.9.7-2.1,1.1-3.6,1.1h-6.3v-7.8ZM542.7,133.5h6c1.3,0,2.4.3,3.2,1,.8.6,1.2,1.5,1.2,2.6s-.4,1.9-1.2,2.6c-.8.6-1.9.9-3.2.9h-6v-7h0ZM540.4,131.5v20.7h8.8c1.4,0,2.7-.2,3.7-.7s1.9-1.1,2.5-2c.6-.9.9-1.9.9-3.1s-.4-2.2-1.1-3.1c-.7-.9-1.7-1.5-3-1.9,1-.4,1.8-1,2.3-1.8.6-.8.8-1.7.8-2.8s-.3-2-.8-2.8c-.5-.8-1.3-1.4-2.3-1.9-1-.4-2.1-.6-3.5-.6h-8.4Z"/>
  <path class="st0" d="M571.3,149.8c-1-.4-1.9-1-2.7-1.8-.8-.8-1.3-1.7-1.8-2.7-.4-1-.6-2.2-.6-3.4s.2-2.4.6-3.4c.4-1,1-1.9,1.8-2.7.8-.8,1.7-1.4,2.7-1.8,1-.4,2.1-.7,3.3-.7s2.3.2,3.3.7c1,.4,1.9,1,2.7,1.8.8.8,1.3,1.7,1.8,2.7.4,1,.6,2.2.6,3.4s-.2,2.3-.6,3.4c-.4,1-1,2-1.8,2.7-.8.8-1.7,1.4-2.7,1.8-1,.4-2.1.7-3.3.7s-2.3-.2-3.3-.7M570.4,132c-1.3.5-2.4,1.3-3.4,2.3-1,1-1.7,2.1-2.3,3.4-.5,1.3-.8,2.7-.8,4.2s.3,2.9.8,4.2c.5,1.3,1.3,2.4,2.3,3.4,1,1,2.1,1.7,3.4,2.3,1.3.5,2.7.8,4.2.8s2.9-.3,4.2-.8c1.3-.5,2.4-1.3,3.4-2.3,1-1,1.7-2.1,2.3-3.4.5-1.3.8-2.7.8-4.2s-.3-2.9-.8-4.2c-.5-1.3-1.3-2.4-2.3-3.4-1-1-2.1-1.7-3.4-2.3-1.3-.5-2.7-.8-4.2-.8s-2.9.3-4.2.8Z"/>
  <path class="st0" d="M596.5,133.6h4.7c1.2,0,2.3.2,3.3.6,1,.4,1.9,1,2.7,1.7.8.8,1.4,1.6,1.8,2.6.4,1,.6,2.1.6,3.3s-.2,2.3-.6,3.3c-.4,1-1,1.9-1.8,2.6-.8.8-1.7,1.3-2.7,1.8s-2.1.6-3.3.6h-4.7v-16.6h0ZM594.2,131.5v20.7h6.8c1.6,0,3-.3,4.4-.8,1.3-.5,2.5-1.2,3.5-2.2,1-.9,1.7-2,2.3-3.3.5-1.3.8-2.7.8-4.1s-.3-2.9-.8-4.1c-.5-1.3-1.3-2.4-2.3-3.3-1-.9-2.1-1.6-3.5-2.2-1.3-.5-2.8-.8-4.3-.8h-6.8Z"/>
  <polygon class="st0" points="632.9 131.5 626.2 141.8 619.4 131.5 616.7 131.5 625 143.8 625 152.2 627.2 152.2 627.2 143.9 635.5 131.5 632.9 131.5"/>
  <polygon class="st0" points="33.2 99.6 63.1 126.3 63.1 86.2 33.3 59.6 33.2 99.6"/>
  <polygon class="st0" points="55.3 58.5 74.4 75.5 74.4 49.9 55.3 32.9 55.3 58.5"/>
  <polygon class="st0" points="164.2 86.2 164.2 126.3 194.1 99.6 194 59.6 164.2 86.2"/>
  <polygon class="st0" points="152.9 49.9 152.9 75.5 172 58.5 172 32.9 152.9 49.9"/>
  <polygon class="st0" points="113.7 141.6 63.1 126.3 63.1 148.8 113.7 164.5 164.2 148.8 164.2 126.3 113.7 141.6"/>
  <path class="st0" d="M87.2,85s23.9,2.5,24,33.9h5.1c0-31.4,23.9-33.9,23.9-33.9l-26.5-58.6-26.5,58.6Z"/>
</svg>